<svg viewBox="0 0 841.88976378 473.562992126" width="841.88976378pt" height="473.562992126pt" xmlns="http://www.w3.org/2000/svg" xmlns:xlink="http://www.w3.org/1999/xlink" xmlns:h5="http://www.w3.org/1999/xhtml"><path fill="#1f2428" fill-rule="nonzero" d="M 0 0v 473.562992126h 841.88976378v -473.562992126Z "/><g><g/><g><g data-typst-label="mosaic-cell-title"><g><g transform="translate(35 118.615617157)" data-typst-label="mosaic-title-display"><g transform="matrix(1 0 0 -1 0 40.7421875)"><use xlink:href="#g6EB2ECF1C4F61F4ED4338B04B038E2CC" x="0" y="0" fill="#f1f3f4" fill-rule="nonzero"/><use xlink:href="#g4248B92EBF36B58D7EF4286FC5F07861" x="33.94125" y="0" fill="#f1f3f4" fill-rule="nonzero"/><use xlink:href="#g742A7793BE11B8B67D9F34647554597A" x="64.46453125" y="0" fill="#f1f3f4" fill-rule="nonzero"/><use xlink:href="#g230EC7B1B4BBD05C2DD58EED6296CFC7" x="93.92140625" y="0" fill="#f1f3f4" fill-rule="nonzero"/><use xlink:href="#g1A85F4CEAF49216A51CCB897F246F0BF" x="125.94859375" y="0" fill="#f1f3f4" fill-rule="nonzero"/><use xlink:href="#g66A5FA843B12E7031ACB3751BE8D43BB" x="138.12421875" y="0" fill="#f1f3f4" fill-rule="nonzero"/><use xlink:href="#gFC0F3512D50A4702B41C0283F2DB7ACF" x="169.3584375" y="0" fill="#f1f3f4" fill-rule="nonzero"/><use xlink:href="#gD19F633B29C59213D3BCC448AFCA196A" x="213.20578125" y="0" fill="#f1f3f4" fill-rule="nonzero"/><use xlink:href="#g2DB7F37866786E857C524421027ED166" x="231.94390625" y="0" fill="#f1f3f4" fill-rule="nonzero"/><use xlink:href="#g4248B92EBF36B58D7EF4286FC5F07861" x="263.178125" y="0" fill="#f1f3f4" fill-rule="nonzero"/><use xlink:href="#g4EDCB0C910D21543B37F20B85CBCFD3" x="305.13875" y="0" fill="#f1f3f4" fill-rule="nonzero"/><use xlink:href="#g1A85F4CEAF49216A51CCB897F246F0BF" x="339.408125" y="0" fill="#f1f3f4" fill-rule="nonzero"/><use xlink:href="#g230EC7B1B4BBD05C2DD58EED6296CFC7" x="351.58375" y="0" fill="#f1f3f4" fill-rule="nonzero"/><use xlink:href="#g4248B92EBF36B58D7EF4286FC5F07861" x="383.6109375" y="0" fill="#f1f3f4" fill-rule="nonzero"/><use xlink:href="#gE56B0C49B582FC4246AECC00B5731D05" x="413.75140625" y="0" fill="#f1f3f4" fill-rule="nonzero"/></g></g><g transform="translate(35 180.917804657)"><g transform="matrix(1 0 0 -1 0 21.389648438)"><use xlink:href="#g6CC1631C7363CD0704710334C56800F5" x="0" y="0" fill="#9ca4a8" fill-rule="nonzero"/><use xlink:href="#gBCE43093CF32568F685A698DA0B0AFE2" x="26.844726563" y="0" fill="#9ca4a8" fill-rule="nonzero"/><use xlink:href="#g20CDAB0CF04943F09E8C458DB51A6096" x="41.027929688" y="0" fill="#9ca4a8" fill-rule="nonzero"/><use xlink:href="#g883568AC1071B127735AA5B3706F5703" x="57.149121094" y="0" fill="#9ca4a8" fill-rule="nonzero"/><use xlink:href="#gBCE43093CF32568F685A698DA0B0AFE2" x="72.552539063" y="0" fill="#9ca4a8" fill-rule="nonzero"/><use xlink:href="#g419EDC4D1ACD1C3653A6B27D2D4DCF15" x="86.735742188" y="0" fill="#9ca4a8" fill-rule="nonzero"/><use xlink:href="#g6336FEEE6C2340C676699C9724A3C68" x="103.086621094" y="0" fill="#9ca4a8" fill-rule="nonzero"/><use xlink:href="#g419EDC4D1ACD1C3653A6B27D2D4DCF15" x="126.830566406" y="0" fill="#9ca4a8" fill-rule="nonzero"/><use xlink:href="#g4BDD2375E3955D92A1DE4EC6EB9EB3D" x="143.181445313" y="0" fill="#9ca4a8" fill-rule="nonzero"/><use xlink:href="#gFCF0394D183E7C4F364807CCC776DAF" x="159.934277344" y="0" fill="#9ca4a8" fill-rule="nonzero"/><use xlink:href="#g883568AC1071B127735AA5B3706F5703" x="176.758886719" y="0" fill="#9ca4a8" fill-rule="nonzero"/><use xlink:href="#gC4DE72EB79FDCA46476440422CDF157" x="192.162304687" y="0" fill="#9ca4a8" fill-rule="nonzero"/><use xlink:href="#gFCF0394D183E7C4F364807CCC776DAF" x="208.427050781" y="0" fill="#9ca4a8" fill-rule="nonzero"/><use xlink:href="#g20CDAB0CF04943F09E8C458DB51A6096" x="225.251660156" y="0" fill="#9ca4a8" fill-rule="nonzero"/><use xlink:href="#gC2611C780734B794A42B76F5C00E5834" x="248.694140625" y="0" fill="#9ca4a8" fill-rule="nonzero"/><use xlink:href="#g20CDAB0CF04943F09E8C458DB51A6096" x="258.082617187" y="0" fill="#9ca4a8" fill-rule="nonzero"/><use xlink:href="#gEED5738F587FD087BA65DA407F6D273B" x="274.045898437" y="0" fill="#9ca4a8" fill-rule="nonzero"/><use xlink:href="#g419EDC4D1ACD1C3653A6B27D2D4DCF15" x="289.621582031" y="0" fill="#9ca4a8" fill-rule="nonzero"/><use xlink:href="#gC2611C780734B794A42B76F5C00E5834" x="305.972460937" y="0" fill="#9ca4a8" fill-rule="nonzero"/><use xlink:href="#g6A0B28AB6B16B8F7F47463331C6238A" x="315.3609375" y="0" fill="#9ca4a8" fill-rule="nonzero"/><use xlink:href="#gBCE43093CF32568F685A698DA0B0AFE2" x="332.185546875" y="0" fill="#9ca4a8" fill-rule="nonzero"/></g></g><g transform="translate(35 253.267453094)"><path fill="none" stroke="#b39177" stroke-width="3.36" stroke-linecap="butt" stroke-linejoin="miter" stroke-miterlimit="4" d="M 0 0h 771.88976378"/></g><g transform="translate(35 284.627453094)"><g transform="matrix(1 0 0 -1 0 14.259765625)"><use xlink:href="#g773408B87CFEA34B8CAC2D3D168DE217" x="0" y="0" fill="#f1f3f4" fill-rule="nonzero"/><use xlink:href="#g4F8ED6BCA843A5B39B87E03AA4E675C5" x="13.446289062" y="0" fill="#f1f3f4" fill-rule="nonzero"/><use xlink:href="#gB4FB53A8BA3E2C90C182D7896A44C01A" x="25.30390625" y="0" fill="#f1f3f4" fill-rule="nonzero"/><use xlink:href="#g2BC5594D43174F1EEB28859877FDE144" x="41.248046875" y="0" fill="#f1f3f4" fill-rule="nonzero"/><use xlink:href="#g8CBEA968D56345707348EBFA95E42852" x="52.186914062" y="0" fill="#f1f3f4" fill-rule="nonzero"/><use xlink:href="#g4B3327EB50F51B72FA2F4D21F90886CE" x="63.384179687" y="0" fill="#f1f3f4" fill-rule="nonzero"/><use xlink:href="#gCB0D3E871483B8F01DE145D3FB8BBF15" x="73.978515625" y="0" fill="#f1f3f4" fill-rule="nonzero"/><use xlink:href="#g1D386507339DE03B9C24BEF96DC3FFE8" x="85.223632812" y="0" fill="#f1f3f4" fill-rule="nonzero"/><use xlink:href="#gB4FB53A8BA3E2C90C182D7896A44C01A" x="89.9609375" y="0" fill="#f1f3f4" fill-rule="nonzero"/><use xlink:href="#g9A0E4236AEF7A52B5B852A082BC3DA83" x="100.851953125" y="0" fill="#f1f3f4" fill-rule="nonzero"/><use xlink:href="#gCB0D3E871483B8F01DE145D3FB8BBF15" x="111.89609375" y="0" fill="#f1f3f4" fill-rule="nonzero"/></g><g transform="matrix(1 0 0 -1 0 42.28984375)"><use xlink:href="#gD54F68E9BA344367C230AC775F00D2F6" x="0" y="0" fill="#9ca4a8" fill-rule="nonzero"/><use xlink:href="#gF1EFA93865A14DCDAB0DDD012E1838F3" x="12.655507812" y="0" fill="#9ca4a8" fill-rule="nonzero"/><use xlink:href="#g1F4E52694A405B29663FEF4B9E603364" x="23.05625" y="0" fill="#9ca4a8" fill-rule="nonzero"/><use xlink:href="#g1A9BB9B763C6B5F68A578A20354DFCA8" x="32.660195313" y="0" fill="#9ca4a8" fill-rule="nonzero"/><use xlink:href="#g5F0803CD2189AE0997DBE927050A9468" x="41.687734375" y="0" fill="#9ca4a8" fill-rule="nonzero"/><use xlink:href="#g1F4E52694A405B29663FEF4B9E603364" x="47.43484375" y="0" fill="#9ca4a8" fill-rule="nonzero"/><use xlink:href="#gB319DF93DBA93B269CFEE1DA20BDB7A6" x="57.038789063" y="0" fill="#9ca4a8" fill-rule="nonzero"/><use xlink:href="#gEDC3CD02698011884FE371D003E908B9" x="65.905273438" y="0" fill="#9ca4a8" fill-rule="nonzero"/><use xlink:href="#gF6722924235AD29EA824C4D9EDADF3C" x="79.128710938" y="0" fill="#9ca4a8" fill-rule="nonzero"/><use xlink:href="#g1A9BB9B763C6B5F68A578A20354DFCA8" x="89.605742187" y="0" fill="#9ca4a8" fill-rule="nonzero"/><use xlink:href="#g89747EAED773378EC9542498B0835B5C" x="98.599375" y="0" fill="#9ca4a8" fill-rule="nonzero"/><use xlink:href="#gF8B6FD4BAF212536544928685B029A2" x="108.5678125" y="0" fill="#9ca4a8" fill-rule="nonzero"/><use xlink:href="#gD8DA9E7A36E1B2381BDEFC2C387D93E6" x="115.171054687" y="0" fill="#9ca4a8" fill-rule="nonzero"/><use xlink:href="#g1F4E52694A405B29663FEF4B9E603364" x="124.647851563" y="0" fill="#9ca4a8" fill-rule="nonzero"/><use xlink:href="#g5F0803CD2189AE0997DBE927050A9468" x="134.251796875" y="0" fill="#9ca4a8" fill-rule="nonzero"/><use xlink:href="#gF1EFA93865A14DCDAB0DDD012E1838F3" x="139.710703125" y="0" fill="#9ca4a8" fill-rule="nonzero"/><use xlink:href="#gF8B6FD4BAF212536544928685B029A2" x="149.958867187" y="0" fill="#9ca4a8" fill-rule="nonzero"/><use xlink:href="#g62A3956AC72F5F44B060C3199C0E6FD0" x="156.562109375" y="0" fill="#9ca4a8" fill-rule="nonzero"/></g><g transform="matrix(1 0 0 -1 0 70.319921875)"><use xlink:href="#gF735DD8316561B3C3B7A374A76251C83" x="0" y="0" fill="#9ca4a8" fill-rule="nonzero"/><use xlink:href="#g1F4E52694A405B29663FEF4B9E603364" x="15.5290625" y="0" fill="#9ca4a8" fill-rule="nonzero"/><use xlink:href="#gF8B6FD4BAF212536544928685B029A2" x="25.133007812" y="0" fill="#9ca4a8" fill-rule="nonzero"/><use xlink:href="#g31E2BD453D0835788B68512F3B47952F" x="31.22765625" y="0" fill="#9ca4a8" fill-rule="nonzero"/><use xlink:href="#g5EA5AA91B9B5ACF86EE6DEDD46DA85D6" x="40.99265625" y="0" fill="#9ca4a8" fill-rule="nonzero"/><use xlink:href="#gD7CC367880DEA31487635CA9571DD61" x="55.894453125" y="0" fill="#9ca4a8" fill-rule="nonzero"/><use xlink:href="#gE84A35213EF9512CF3E637784147A5E1" x="66.320625" y="0" fill="#9ca4a8" fill-rule="nonzero"/><use xlink:href="#gD7CC367880DEA31487635CA9571DD61" x="77.213007812" y="0" fill="#9ca4a8" fill-rule="nonzero"/><use xlink:href="#gFAF1380C133A4D635E2CFEF0FDAC4BB1" x="87.639179687" y="0" fill="#9ca4a8" fill-rule="nonzero"/></g></g></g></g></g><g><g data-typst-label="mosaic-foreground"/></g></g><defs><symbol id="g6EB2ECF1C4F61F4ED4338B04B038E2CC" overflow="visible"><path d="M 0 0m 3.377640724 0v 40.7421875h 15.908428192q 4.482141972 0 7.74804616 -1.5875597q 3.265904188 -1.5875597 5.036118269 -4.510577202q 1.770214081 -2.923014164 1.770214081 -6.930472374q 0 -3.958248138 -1.869749069 -6.855569124q -1.869749069 -2.897320986 -5.241196394 -4.465197325q -3.371447325 -1.567878008 -7.904978991 -1.567878008h -11.177205086v 5.969352245h 11.263650656q 2.422739029 0 4.174439669 0.847681284q 1.75170064 0.847682953 2.697825432 2.40632844q 0.946124792 1.558645487 0.946124792 3.665282488q 0 2.133980751 -0.954876661 3.670204163q -0.954874992 1.536223412 -2.706575632 2.383906364q -1.75170064 0.847682953 -4.191941738 0.847682953h -8.253812075v -34.615371704h -7.244511604Z m 23.293680668 0l -9.489449501 18.379362583h 7.753136396l 9.673193693 -18.379362583h -7.936880589Z "/></symbol><symbol id="g4248B92EBF36B58D7EF4286FC5F07861" overflow="visible"><path d="M 0 0m 15.810063124 -0.65625q -4.326856375 0 -7.493226409 1.93648541q -3.166370034 1.93648541 -4.885170221 5.345703125q -1.718800187 3.409217715 -1.718800187 7.776557326q 0 4.412185431 1.766385555 7.825232506q 1.766385555 3.413048744 4.881898284 5.358285189q 3.115512729 1.945236444 7.1601547 1.945236444q 3.125912666 0 5.668856382 -1.088829994q 2.542942047 -1.088828325 4.373856783 -3.097504139q 1.830914736 -2.008674145 2.815823793 -4.759461403q 0.98490572 -2.750785589 0.98490572 -6.074700117v -1.875657082h -24.915376663v 4.759838581h 21.461494207l -3.088520288 -1.276431084q 0 2.441357613 -0.880504131 4.221518517q -0.8805058 1.780160904 -2.489476204 2.748175383q -1.608970404 0.968016148 -3.822801113 0.968016148q -2.186486959 0 -3.791627169 -0.968016148q -1.605140209 -0.968014479 -2.485645175 -2.748175383q -0.880504966 -1.780160904 -0.880504966 -4.221518517v -3.002126455q 0 -2.478543043 0.877765417 -4.362067461q 0.877765417 -1.883524418 2.556185842 -2.931389689q 1.678420424 -1.047865272 4.061792731 -1.047865272q 1.735847473 0 3.073002577 0.519557118q 1.337156773 0.519557118 2.229683876 1.456398487q 0.892528772 0.936841369 1.28082037 2.175022244h 6.459306717q -0.537034988 -2.830610514 -2.387631416 -4.986378312q -1.850598097 -2.155767798 -4.641257763 -3.375836611q -2.790659666 -1.220068812 -6.171391249 -1.220068812Z "/></symbol><symbol id="g742A7793BE11B8B67D9F34647554597A" overflow="visible"><path d="M 0 0m 11.87601614 -0.467025042q -2.880935431 0 -5.130783319 0.964691639q -2.249847889 0.964691639 -3.551415563 2.895165563q -1.301567674 1.930473924 -1.301567674 4.801567674q 0 2.468597889 0.926415563 4.071479201q 0.926415563 1.602881312 2.514001966 2.560444951q 1.587586403 0.957563639 3.637277007 1.456852436q 2.049690604 0.499290466 4.268896937 0.733361244q 2.682985306 0.304079056 4.254159451 0.529932022q 1.571175814 0.225851297 2.246019363 0.683034658q 0.674841881 0.457183361 0.674841881 1.442674875v 0.214387417q 0 1.241478682 -0.628932953 2.187630177q -0.628931284 0.946149826 -1.808594465 1.485948563q -1.179663181 0.539798737 -2.838958502 0.539798737q -1.661476612 0 -2.930831432 -0.537058353q -1.26935482 -0.537060022 -2.013141036 -1.483742237q -0.743786216 -0.946683884 -0.853161216 -2.179385662h -6.629913092q 0.176085472 2.878702402 1.729200125 5.021888971q 1.553114653 2.143186569 4.313158631 3.341389894q 2.760043979 1.198204994 6.542154908 1.198204994q 2.810875416 0 5.034976721 -0.678673744q 2.224101305 -0.678673744 3.767906666 -1.956169605q 1.543805361 -1.277494192 2.348797083 -3.081622601q 0.804991722 -1.804130077 0.804991722 -4.055042744v -19.689733028h -6.778603077v 4.081879139h -0.109375q -0.676998138 -1.285104513 -1.767450333 -2.318155527q -1.090452194 -1.033051014 -2.730544806 -1.631899834q -1.640092611 -0.59884882 -3.989525557 -0.59884882Z m 1.699468136 5.110893011q 2.243407488 0 3.77962923 0.818715334q 1.536223412 0.818715334 2.317169189 2.183773279q 0.780945778 1.365057945 0.780945778 3.035259724v 3.136974335q -0.322645903 -0.206727028 -0.948838472 -0.395951986q -0.62619257 -0.189224958 -1.487015009 -0.364778042q -0.86082077 -0.175553083 -1.866020679 -0.342355132q -1.005201578 -0.166802049 -2.068361759 -0.321022868q -1.471135139 -0.208908319 -2.715327501 -0.687982202q -1.244192362 -0.479073882 -1.996729612 -1.307072639q -0.752537251 -0.827998757 -0.752537251 -2.1438483q 0 -1.123326778 0.611430049 -1.936563015q 0.611430049 -0.813236237 1.724915147 -1.244192362q 1.113485098 -0.430956125 2.620740891 -0.430956125Z "/></symbol><symbol id="g230EC7B1B4BBD05C2DD58EED6296CFC7" overflow="visible"><path d="M 0 0m 14.216620445 -0.586241722q -3.755935431 0 -6.576171875 1.890548944q -2.820236444 1.890548944 -4.373909354 5.27734375q -1.55367291 3.386794806 -1.55367291 7.875532389q 0 4.447189569 1.568435431 7.829064369q 1.568435431 3.381873131 4.383751035 5.278433561q 2.815315604 1.896560431 6.512200952 1.896560431q 1.88671875 0 3.512049675 -0.513519764q 1.625329256 -0.513519764 2.936205387 -1.545479298q 1.3108778 -1.031961203 2.230723619 -2.615717411h 0.044845819v 15.955662251h 6.912024021v -40.7421875h -6.802649021v 4.414366722h -0.044845819q -0.901278973 -1.677810431 -2.229658842 -2.791243792q -1.328378201 -1.113433361 -2.975572109 -1.661399007q -1.647195578 -0.547965646 -3.543756008 -0.547965646Z m 1.626213789 5.768104315q 2.256495237 0 3.929994822 1.14793098q 1.673499584 1.14793098 2.592280626 3.237065911q 0.918781042 2.089134932 0.918781042 4.890323877q 0 2.818691015 -0.918781042 4.897984266q -0.918781042 2.079293251 -2.592280626 3.227225065q -1.673499584 1.147930145 -3.929994822 1.147930145q -2.124139071 0 -3.736939669 -1.077921867q -1.612800598 -1.077923536 -2.509716988 -3.139714718q -0.896916389 -2.061791182 -0.896916389 -5.055502892q 0 -2.976209641 0.896916389 -5.047842503q 0.896916389 -2.071632862 2.509716988 -3.149555564q 1.612800598 -1.077922702 3.736939669 -1.077922702Z "/></symbol><symbol id="g1A85F4CEAF49216A51CCB897F246F0BF" overflow="visible"><path d="M 0 0m 3.051645279 0v 28.875h 6.912024021v -28.875h -6.912024021Z m 3.44617033 33.169343948q -1.765217304 0 -2.945867658 1.130262852q -1.180650353 1.130262852 -1.180650353 2.797263622q 0 1.668960094 1.180650353 2.790557861q 1.180650353 1.121601105 2.933124959 1.121601105q 1.775147855 0 2.957204282 -1.120546341q 1.182056427 -1.120546341 1.182056427 -2.804349899q 0 -1.661746979 -1.183792114 -2.788268089q -1.183792949 -1.126521111 -2.942725897 -1.126521111Z "/></symbol><symbol id="g66A5FA843B12E7031ACB3751BE8D43BB" overflow="visible"><path d="M 0 0m 9.9636693 16.327620029v -16.327620029h -6.912024021v 28.875h 6.792807341v -7.344458818h -1.351866722q 1.392349958 3.860947847 3.926567674 5.895824194q 2.534217715 2.034876347 6.296645284 2.034876347q 3.034039736 0 5.351714611 -1.310851097q 2.317674875 -1.310851097 3.630199909 -3.853819847q 1.312526703 -2.54296875 1.312526703 -6.260653973v -18.035916805h -6.912024021v 16.940140724q 0 3.18511796 -1.520368576 4.824703217q -1.520370245 1.639586926 -4.30187583 1.639586926q -1.810218334 0 -3.237624168 -0.739397764q -1.427405834 -0.739397764 -2.251042008 -2.301873446q -0.823636174 -1.562475681 -0.823636174 -4.035539627Z "/></symbol><symbol id="gFC0F3512D50A4702B41C0283F2DB7ACF" overflow="visible"><path d="M 0 0m 16.161117554 -11.8125q -3.81488204 0 -6.588597894 1.111226201q -2.773715854 1.111226201 -4.408329368 3.164721131q -1.634613514 2.05349493 -2.029448986 4.867719889h 6.765515327q 0.331422806 -1.243659973 1.198255897 -2.091900349q 0.866833091 -0.848240376 2.158052564 -1.289038181q 1.291219473 -0.440797806 2.90455246 -0.440797806q 3.232145071 0 5.018317461 1.748961091q 1.78617239 1.748961091 1.78617239 5.0565418v 4.404525042h -0.02734375q -0.918781042 -1.677810431 -2.234578848 -2.771560431q -1.315797806 -1.09375 -2.949319839 -1.617111444q -1.633523703 -0.523361444 -3.537744522 -0.523361444q -3.755935431 0 -6.576171875 1.885628104q -2.820236444 1.885628104 -4.373909354 5.218293667q -1.55367291 3.332665563 -1.55367291 7.663936257q 0 4.388139486 1.568435431 7.74540925q 1.568435431 3.357269764 4.383751035 5.248910189q 2.815315604 1.891638756 6.512200952 1.891638756q 1.88671875 0 3.521889687 -0.524451256q 1.635172606 -0.524451256 2.982144356 -1.606178284q 1.34697175 -1.081728697 2.282138348 -2.740972281h 0.02734375v 4.285360098h 6.822332382v -28.12703228q 0 -4.472300291 -1.77843523 -7.23726511q -1.778433561 -2.764964819 -4.868782997 -4.044083714q -3.090351105 -1.279118896 -7.004766464 -1.279118896Z m -0.318283319 17.30929637q 2.256495237 0 3.929994822 1.133168459q 1.673499584 1.133168459 2.592280626 3.197699189q 0.918781042 2.06453073 0.918781042 4.826352954q 0 2.779324293 -0.918781042 4.838934183q -0.918781042 2.05960989 -2.592280626 3.187858343q -1.673499584 1.128246784 -3.929994822 1.128246784q -2.124139071 0 -3.736939669 -1.058238506q -1.612800598 -1.058240175 -2.509716988 -3.100347996q -0.896916389 -2.042107821 -0.896916389 -4.996452808q 0 -2.936842918 0.896916389 -4.983871579q 0.896916389 -2.047028661 2.509716988 -3.110188842q 1.612800598 -1.063160181 3.736939669 -1.063160181Z "/></symbol><symbol id="gD19F633B29C59213D3BCC448AFCA196A" overflow="visible"><path d="M 0 0m 18.304526091 28.875v -5.547173023h -17.845161438v 5.547173023h 17.845161438Z m -12.802953243 7.875h 6.912024021v -28.470581532q 0 -1.530185223 0.628373861 -2.131215334q 0.628373861 -0.601030111 2.307300806 -0.601030111q 0.668272972 0 1.540507555 0q 0.872234583 0 1.414747 0v -5.547173023q -0.720779181 0 -1.878449202 0q -1.157668352 0 -2.281956434 0q -4.427350998 0 -6.534949303 1.784420013q -2.107598305 1.784420013 -2.107598305 5.491043568v 29.474536419Z "/></symbol><symbol id="g2DB7F37866786E857C524421027ED166" overflow="visible"><path d="M 0 0m 9.9636693 16.327620029v -16.327620029h -6.912024021v 40.7421875h 6.912024021v -19.211646318h -1.471083403q 1.392349958 3.860947847 3.926567674 5.895824194q 2.534217715 2.034876347 6.296645284 2.034876347q 3.034039736 0 5.351714611 -1.310851097q 2.317674875 -1.310851097 3.630203247 -3.853819847q 1.312526703 -2.54296875 1.312526703 -6.260653973v -18.035916805h -6.912027359v 16.940140724q 0 3.18511796 -1.520368576 4.824703217q -1.520370245 1.639586926 -4.30187583 1.639586926q -1.810218334 0 -3.237624168 -0.739397764q -1.427405834 -0.739397764 -2.251042008 -2.301873446q -0.823636174 -1.562475681 -0.823636174 -4.035539627Z "/></symbol><symbol id="g4EDCB0C910D21543B37F20B85CBCFD3" overflow="visible"><path d="M 0 0m 1.268770695 34.477584839v 6.264602661h 32.56726408v -6.264602661h -12.643874168v -34.477584839h -7.244511604v 34.477584839h -12.678878307Z "/></symbol><symbol id="gE56B0C49B582FC4246AECC00B5731D05" overflow="visible"><path d="M 0 0m 14.393563747 -0.685775042q -3.522877693 0 -6.309148908 1.105214715q -2.786271214 1.105214715 -4.477727652 3.253322124q -1.691456437 2.148107409 -1.922229409 5.253271937h 6.817969799q 0.226410389 -2.107753515 1.707945466 -3.273186564q 1.481535077 -1.165433049 4.054132342 -1.165433049q 2.505886793 0 3.937122822 0.987166286q 1.431236029 0.987166286 1.431236029 2.517403245q 0 1.306007862 -1.055499792 2.103390932q -1.055499792 0.79738307 -2.888647556 1.175832987l -4.924004555 1.015016556q -4.137631416 0.868456125 -6.280817986 2.968445778q -2.143186569 2.099989653 -2.143186569 5.372462749q 0 2.64792943 1.434430361 4.64673686q 1.434430361 1.99880743 4.055548429 3.113328934q 2.621118069 1.114524841 6.153837442 1.114524841q 3.499896526 0 6.158200026 -1.174132347q 2.658303499 -1.174130678 4.179685116 -3.321147442q 1.521383286 -2.147016764 1.603414536 -5.116527319h -6.487715244q -0.02734375 1.92289114 -1.483715534 3.190597057q -1.456373453 1.267705917 -3.81240201 1.267705917q -2.268518209 0 -3.588730335 -1.01451087q -1.320212126 -1.014509201 -1.320212126 -2.490058661q 0 -1.296166182 1.02105391 -2.107221127q 1.02105391 -0.811054945 2.813770175 -1.20482564l 5.199571609 -1.074066639q 4.303875208 -0.905641556 6.328936577 -2.84103632q 2.0250597 -1.935394764 2.0250597 -5.101790667q 0 -2.817471027 -1.567318916 -4.884079576q -1.567318916 -2.066608548 -4.330075741 -3.191506624q -2.762758493 -1.124898076 -6.330482006 -1.124898076Z "/></symbol><symbol id="g6CC1631C7363CD0704710334C56800F5" overflow="visible"><path d="M 0 0m 0.35347538 0l 7.876842374 21.389648438h 2.961698627l 7.817669874 -21.389648438h -2.772841501l -4.499482656 12.86217581q -0.440871656 1.263119155 -0.993557203 2.923410952q -0.552685547 1.660292673 -1.391362453 4.338705611h 0.713301373q -0.836602968 -2.682559061 -1.391362453 -4.346999609q -0.554759485 -1.664441425 -1.001690859 -2.915116954l -4.591351873 -12.86217581h -2.727863252Z m 4.052065873 5.996438062v 2.309318626h 10.552079129v -2.309318626h -10.552079129Z "/></symbol><symbol id="gBCE43093CF32568F685A698DA0B0AFE2" overflow="visible"><path d="M 0 0m 7.182854819 -0.34453125q -1.626315844 0 -2.941834125 0.523893562q -1.315518281 0.523893562 -2.135853937 1.588029045q -0.820335656 1.064135483 -0.947785127 2.675609574l 2.417940563 0.085031444q 0.160308284 -1.345266187 1.071961597 -2.048522061q 0.911653313 -0.703255874 2.48229703 -0.703255874q 1.593619126 0 2.517635018 0.668647313q 0.924015892 0.668647313 0.924015892 1.671456188q 0 0.85718025 -0.624381405 1.379161969q -0.624382281 0.521981719 -1.668507814 0.757891032l -2.47361269 0.582514501q -2.120623595 0.504515344 -3.201350579 1.582212907q -1.080726984 1.077696687 -1.080726984 2.734797406q 0 1.304435813 0.707646891 2.310436642q 0.707646891 1.006000829 1.963912502 1.57718972q 1.25626561 0.571188891 2.890877205 0.571188891q 1.589471251 0 2.831057203 -0.581235266q 1.241585952 -0.581233513 1.978818655 -1.640103543q 0.737232703 -1.058869153 0.825925738 -2.512270993l -2.376786 -0.087105381q -0.059982097 1.156084871 -0.92011072 1.933192027q -0.860129499 0.777107155 -2.336830938 0.777107155q -1.398702282 0 -2.248947939 -0.672633094q -0.850245658 -0.672633094 -0.850245658 -1.652952844q 0 -0.865476 0.633714563 -1.391524547q 0.633714563 -0.526048547 1.770356816 -0.794816673l 2.43835575 -0.57421875q 2.18203125 -0.516796875 3.205417407 -1.551508641q 1.023386157 -1.034711766 1.023386157 -2.673309141q 0 -1.406835938 -0.76602425 -2.425199345q -0.766025126 -1.018363407 -2.096142018 -1.564033315q -1.330116892 -0.545669907 -3.014178801 -0.545669907Z "/></symbol><symbol id="g20CDAB0CF04943F09E8C458DB51A6096" overflow="visible"><path d="M 0 0m 8.204653323 -0.34453125q -2.23961522 0 -3.828130549 1.021312219q -1.588515329 1.021312219 -2.432539174 2.817900798q -0.844023845 1.796588579 -0.844023845 4.1060693q 0 2.334043783 0.877757531 4.140921003q 0.877757531 1.80687722 2.439554814 2.838477641q 1.561797282 1.031601298 3.596450159 1.031601298q 1.535548872 0 2.801859981 -0.552441967q 1.266311109 -0.552442843 2.186259735 -1.597119498q 0.919949502 -1.044675779 1.418485737 -2.513162076q 0.498537111 -1.468487173 0.498537111 -3.300575835v -0.732777286h -12.460546875v 2.108342063h 11.092629468l -1.070762533 -0.742498595q 0 1.5545385 -0.544389796 2.708241892q -0.544389796 1.153703392 -1.545124733 1.78853597q -1.000734937 0.634832579 -2.376948094 0.634832579q -1.363931626 0 -2.366821548 -0.636906517q -1.002889922 -0.636906517 -1.5545385 -1.778166282q -0.551648578 -1.141259766 -0.551648578 -2.65639345v -1.093737942q 0 -1.595855159 0.549736735 -2.806899378q 0.549736735 -1.211044219 1.594737142 -1.886707172q 1.045000407 -0.675662953 2.521539751 -0.675662953q 1.057994717 0 1.870034623 0.328020796q 0.812039906 0.328020796 1.353480452 0.923691702q 0.541441423 0.595670906 0.781498611 1.389369562l 2.448725438 -0.099549007q -0.299553001 -1.414645404 -1.201873595 -2.486914542q -0.902320594 -1.072269139 -2.252690578 -1.675036731q -1.350369984 -0.602767593 -3.00124889 -0.602767593Z "/></symbol><symbol id="g883568AC1071B127735AA5B3706F5703" overflow="visible"><path d="M 0 0m 6.478950566 -0.250426877q -1.509398156 0 -2.708160844 0.525092626q -1.198762688 0.525092626 -1.900187767 1.562915298q -0.701425079 1.037822673 -0.701425079 2.55551658q 0 1.316717345 0.514803985 2.141200876q 0.514803985 0.824483532 1.377250126 1.295184141q 0.862446141 0.47070061 1.949394938 0.714743578q 1.086948797 0.244042969 2.218956891 0.387597656q 1.447828406 0.198902625 2.290815282 0.299390906q 0.842986876 0.100488281 1.207139486 0.332249719q 0.36415261 0.231761438 0.36415261 0.808054125v 0.135258937q 0 0.857504439 -0.391664922 1.504618549q -0.391664046 0.64711411 -1.144289625 1.014215094q -0.752624702 0.36710186 -1.823225141 0.36710186q -1.062466782 0 -1.874587736 -0.352746391q -0.812120953 -0.352745515 -1.297177032 -0.946342921q -0.485056078 -0.59359653 -0.571513081 -1.325401247l -2.483496094 0.118214446q 0.150586975 1.402850157 0.977468634 2.44935717q 0.826881659 1.046507013 2.176133627 1.636668885q 1.349251968 0.590161872 3.062801993 0.590161872q 1.246041369 0 2.309301978 -0.335036874q 1.063260609 -0.335036874 1.845957845 -0.98294481q 0.782697237 -0.64790706 1.216796833 -1.596728718q 0.434098721 -0.948822534 0.434098721 -2.178467792v -10.469446689h -2.430384189v 2.157468188h -0.074013376q -0.272753906 -0.54758175 -0.814275938 -1.10648911q -0.541522032 -0.55890736 -1.44807111 -0.930156657q -0.906549954 -0.371249297 -2.282601017 -0.371249297Z m 0.359048814 2.196548814q 1.484672999 0 2.426074219 0.541440985q 0.941401219 0.541440985 1.384508908 1.407953954q 0.443107688 0.866512969 0.443107688 1.854966375v 1.942622441q -0.145628625 -0.137494969 -0.547824454 -0.257523125q -0.402196705 -0.120029032 -0.973547691 -0.228732017q -0.571350986 -0.108702984 -1.210169345 -0.206080359q -0.638818359 -0.097377375 -1.245409638 -0.177288374q -0.883979344 -0.11484375 -1.670500267 -0.394775391q -0.786520922 -0.279931641 -1.27460686 -0.793698657q -0.488085938 -0.513767016 -0.488085938 -1.383390892q 0 -0.722083408 0.387678704 -1.23896133q 0.387678704 -0.516877922 1.097318485 -0.791705766q 0.709639782 -0.274827844 1.671456188 -0.274827844Z "/></symbol><symbol id="g419EDC4D1ACD1C3653A6B27D2D4DCF15" overflow="visible"><path d="M 0 0m 8.173544258 -0.34453125q -2.108342063 0 -3.702917111 1.015171453q -1.594575047 1.015171453 -2.48262122 2.807693204q -0.888046172 1.792521751 -0.888046172 4.126565534q 0 2.352547127 0.888046172 4.158387816q 0.888046172 1.805839813 2.48262122 2.827152032q 1.594575047 1.021312219 3.702917111 1.021312219q 2.122697532 0 3.712168783 -1.021312219q 1.589471251 -1.021312219 2.477516985 -2.827152032q 0.88804661 -1.805840689 0.88804661 -4.158387816q 0 -2.334043783 -0.88804661 -4.126565534q -0.888045734 -1.792521751 -2.477516985 -2.807693204q -1.589471251 -1.015171453 -3.712168783 -1.015171453Z m 0 2.225259751q 1.462508065 0 2.485894221 0.722083408q 1.023386157 0.722083408 1.562672156 2.017267549q 0.539286 1.295184141 0.539286 2.984819484q 0 1.716272342 -0.539286 3.013530421q -0.539286 1.297258079 -1.562672156 2.032660425q -1.023386157 0.735401469 -2.485894221 0.735401469q -1.448152596 0 -2.47560558 -0.729261142q -1.027452984 -0.729261142 -1.566738984 -2.031623018q -0.539286 -1.302361876 -0.539286 -3.020708156q 0 -1.701916873 0.539286 -2.990960249q 0.539286 -1.289043376 1.560598218 -2.011126783q 1.021312219 -0.722083408 2.481746346 -0.722083408Z "/></symbol><symbol id="g6336FEEE6C2340C676699C9724A3C68" overflow="visible"><path d="M 0 0m 4.336324131 8.979524446v -8.979524446h -2.461169064v 15.287959135h 2.397525376l 0.002073938 -3.706109065h -0.641361934q 0.744410437 2.077719283 2.076439172 3.02924661q 1.332028735 0.951528203 3.130610204 0.951528203q 1.548478782 0 2.805538219 -0.667529297q 1.257059437 -0.667529297 2.000351858 -2.003625298q 0.743292421 -1.336095124 0.743292421 -3.362290156v -9.529180133h -2.461169064v 9.350692695q 0 1.950107718 -0.944431078 2.955072016q -0.944431078 1.004963422 -2.648583984 1.004963422q -1.111592907 0 -2.018061376 -0.453315282q -0.906468469 -0.453315282 -1.443761578 -1.408991361q -0.537293109 -0.955675203 -0.537293109 -2.468897045Z "/></symbol><symbol id="g4BDD2375E3955D92A1DE4EC6EB9EB3D" overflow="visible"><path d="M 0 0m 8.615388483 15.287959135v -2.112489939h -8.389686763v 2.112489939h 8.389686763Z m -5.624492633 -15.287959135v 17.905902815q 0 1.134569192 0.511936221 1.94485935q 0.511936221 0.810290158 1.430929363 1.247175157q 0.918993142 0.436886752 2.130912235 0.436886752q 0.562585598 0 1.030418444 -0.021776783q 0.467832845 -0.021775031 0.619845378 -0.040441346l -0.103696883 -2.112489939q -0.139568907 0.010370564 -0.573100734 0.02281419q -0.433531827 0.012443626 -0.733409017 0.012443626q -0.994999409 0 -1.423832676 -0.444308066q -0.428833267 -0.444306314 -0.428833267 -1.447438502v -17.503627253h -2.461169064Z "/></symbol><symbol id="gFCF0394D183E7C4F364807CCC776DAF" overflow="visible"><path d="M 0 0m 8.243085569 -6.222301877q -1.71867047 0 -3.079248047 0.513604921q -1.360577577 0.513604921 -2.228046468 1.499579152q -0.867468891 0.985974231 -1.099716613 2.389763662l 2.439781308 0.19495014q 0.23399747 -0.766413277 0.774320439 -1.307854262q 0.540322968 -0.541440985 1.347421172 -0.831823361q 0.807098204 -0.290382376 1.845488209 -0.290382376q 1.972758937 0 3.122395939 1.035424545q 1.149636126 1.035424545 1.149636126 2.97963464v 2.42960701h -0.047538471q -0.518384528 -0.815539402 -1.216293025 -1.398053902q -0.697909373 -0.582514501 -1.580852187 -0.891481268q -0.882941937 -0.308966768 -1.966634381 -0.308966768q -1.960477406 0 -3.453527203 0.985261452q -1.493049797 0.985261452 -2.321681204 2.755050936q -0.828631407 1.769789484 -0.828631407 4.122336611q 0 2.360680783 0.826557469 4.141876924q 0.826557469 1.781196141 2.320644236 2.773797423q 1.494086766 0.992601281 3.46493386 0.992601281q 1.071410912 0 1.972775584 -0.306974316q 0.901364672 -0.306974316 1.618732435 -0.905917346q 0.717368639 -0.598943907 1.198908573 -1.459461558h 0.047538471v 2.397687471h 2.401673251v -15.348103327q 0 -2.214565873 -0.926965141 -3.571076623q -0.926964265 -1.356510749 -2.457976234 -1.973795906q -1.531012845 -0.617285156 -3.323696691 -0.617285156Z m -0.157748061 8.224906415q 1.415131688 0 2.444577563 0.698233125q 1.029445875 0.698233125 1.583087343 1.972758937q 0.553641468 1.274525812 0.553641468 2.989048406q 0 1.720582312 -0.552604938 3.001330376q -0.552604061 1.280747187 -1.582049936 1.989350438q -1.029445875 0.708602375 -2.4466515 0.708602375q -1.337456721 0 -2.350554237 -0.66569894q -1.013097516 -0.665698063 -1.577983546 -1.935201126q -0.564886031 -1.269503063 -0.564886031 -3.098383123q 0 -1.822820342 0.565922999 -3.086101592q 0.565922999 -1.26328125 1.579020515 -1.918610063q 1.013097516 -0.655328813 2.348480299 -0.655328813Z "/></symbol><symbol id="gC4DE72EB79FDCA46476440422CDF157" overflow="visible"><path d="M 0 0m 7.426411504 -0.274665749q -1.536197251 0 -2.800434422 0.667529297q -1.264237171 0.667529297 -2.007529593 2.010802594q -0.743292421 1.343273297 -0.743292421 3.35511286v 9.529180133h 2.461169064v -9.350692695q 0 -1.950107718 0.951608813 -2.955071577q 0.951608813 -1.00496386 2.643480188 -1.00496386q 1.111592907 0 2.017024845 0.453315282q 0.905431062 0.453315282 1.442724609 1.416168657q 0.537292671 0.962853375 0.537292671 2.461719748v 8.979524446h 2.463243002v -15.287959135h -2.399599314v 3.706109065h 0.639287996q -0.746484375 -2.069585627 -2.080587047 -3.025180221q -1.334102672 -0.955594593 -3.124388391 -0.955594593Z "/></symbol><symbol id="gC2611C780734B794A42B76F5C00E5834" overflow="visible"><path d="M 0 0m 1.875155067 0v 15.287959135h 2.350473189v -2.395451438h 0.074013376q 0.420456469 1.18337025 1.359070972 1.904255033q 0.938614503 0.720883906 2.361879846 0.720883906q 0.323953968 0 0.62047711 -0.026637876q 0.296523142 -0.026636124 0.452521455 -0.053272247v -2.463243878q -0.139406812 0.040992469 -0.555796891 0.104555547q -0.416389203 0.063562202 -0.945467609 0.063562202q -0.878243816 0 -1.624015412 -0.401078689q -0.745771596 -0.401077813 -1.188879284 -1.222450876q -0.443107688 -0.821372187 -0.443107688 -2.084329247v -9.43475157h -2.461169064Z "/></symbol><symbol id="gEED5738F587FD087BA65DA407F6D273B" overflow="visible"><path d="M 0 0m 8.173544258 -0.34453125q -2.108342063 0 -3.702917111 1.015171453q -1.594575047 1.015171453 -2.48262122 2.807693204q -0.888046172 1.792521751 -0.888046172 4.126565534q 0 2.352547127 0.888046172 4.158387816q 0.888046172 1.805839813 2.48262122 2.827152032q 1.594575047 1.021312219 3.702917111 1.021312219q 1.273326749 0 2.36218695 -0.381294358q 1.088861078 -0.381294358 1.930729938 -1.071150684q 0.84186886 -0.689857203 1.385464829 -1.631970763q 0.54359597 -0.942114437 0.726393378 -2.076034373l -2.471214563 -0.101622945q -0.135421032 0.666411281 -0.457463157 1.220052749q -0.322042125 0.553641468 -0.819379735 0.958624452q -0.49733761 0.404982984 -1.157689172 0.631560016q -0.660351563 0.226576155 -1.499028468 0.226576155q -1.448152596 0 -2.47560558 -0.729261142q -1.027452984 -0.729261142 -1.566738984 -2.031623018q -0.539286 -1.302361876 -0.539286 -3.020708156q 0 -1.701916873 0.539286 -2.990960249q 0.539286 -1.289043376 1.560598218 -2.011126783q 1.021312219 -0.722083408 2.481746346 -0.722083408q 0.840750843 0 1.490894812 0.215332031q 0.650143969 0.215332031 1.124992454 0.622388953q 0.474848485 0.407056922 0.79689061 0.970987031q 0.322042125 0.563930109 0.49430775 1.246770796l 2.505985218 -0.101622945q -0.18072347 -1.11350475 -0.725356847 -2.057692686q -0.5446325 -0.944187936 -1.393679094 -1.644332904q -0.849046594 -0.700144967 -1.939980733 -1.088617498q -1.090935016 -0.38847253 -2.354054171 -0.38847253Z "/></symbol><symbol id="g6A0B28AB6B16B8F7F47463331C6238A" overflow="visible"><path d="M 0 0m 7.705873507 -0.295405126q -1.970847094 0 -3.463896891 1.000815985q -1.493049797 1.000815985 -2.317533329 2.78719697q -0.824483532 1.786380985 -0.824483532 4.145149925q 0 2.368976533 0.825520501 4.15432055q 0.825520501 1.785344017 2.318570298 2.777945298q 1.493049797 0.992601281 3.463896891 0.992601281q 1.07348485 0 1.973812115 -0.31415205q 0.900328141 -0.31415205 1.598237514 -0.887495488q 0.697908497 -0.573343438 1.152811432 -1.360171902h 0.053598189v 8.388842994h 2.461169064v -21.389648438h -2.399599314v 2.32383619h -0.066041815q -0.504029059 -0.813465464 -1.216293025 -1.401164809q -0.712264842 -0.587699345 -1.601347983 -0.902887926q -0.889083141 -0.315188581 -1.958420116 -0.315188581Z m 0.375316125 2.21297822q 1.415131688 0 2.444577563 0.712750688q 1.029445875 0.712750688 1.583087343 2.002831033q 0.553641468 1.290080345 0.553641468 3.008750814q 0 1.730952001 -0.552604938 3.015847063q -0.552604061 1.284895939 -1.582049936 1.99453572q -1.029445875 0.709639782 -2.4466515 0.709639782q -1.337456721 0 -2.349517268 -0.66673547q -1.012060547 -0.66673547 -1.575909609 -1.941423815q -0.563849062 -1.274687469 -0.563849062 -3.111863279q 0 -1.826968217 0.564886031 -3.105803999q 0.564886031 -1.278835782 1.577983546 -1.948682159q 1.013097516 -0.669846377 2.346406361 -0.669846377Z "/></symbol><symbol id="g773408B87CFEA34B8CAC2D3D168DE217" overflow="visible"><path d="M 0 0m 0.384551113 0l 5.108744008 14.259765625h 2.642394006l 5.155972564 -14.259765625h -2.344163465l -2.767432499 7.967405486q -0.327844536 0.984389353 -0.715454459 2.264800668q -0.387609339 1.280412483 -0.906943655 3.105154014h 0.490743124q -0.512626803 -1.835553694 -0.899060881 -3.126779509q -0.386434078 -1.291226399 -0.69919883 -2.243175173l -2.734471172 -7.967405486h -2.331128741Z m 2.788551886 3.740308738v 1.817857611h 7.330542779v -1.817857611h -7.330542779Z "/></symbol><symbol id="g4F8ED6BCA843A5B39B87E03AA4E675C5" overflow="visible"><path d="M 0 0m 5.278165781 -0.208058245q -1.301128495 0 -2.306484741 0.664407073q -1.005356392 0.664407036 -1.570375457 1.886172076q -0.565019065 1.221765113 -0.565019065 2.898652792q 0 1.68257122 0.572084793 2.900771999q 0.572084939 1.218200779 1.576580185 1.872631645q 1.004495245 0.654430866 2.291732943 0.654430866q 0.893228972 0 1.494930243 -0.285437608q 0.601701272 -0.285437608 0.985939038 -0.702624726q 0.384237766 -0.417187119 0.607163429 -0.821060848h 0.088230407v 5.3998806h 2.079453552v -14.259765625h -2.030358386v 1.632151404h -0.125416422q -0.230243003 -0.417377689 -0.622922552 -0.841743711q -0.392679548 -0.424365948 -0.995005834 -0.711415943q -0.602326286 -0.287049995 -1.480532134 -0.287049995Z m 0.448783636 1.777636225q 0.885471785 0 1.509688175 0.463255492q 0.62421639 0.463255492 0.95244236 1.293115023q 0.32822597 0.829859531 0.32822597 1.926038533q 0 1.100993657 -0.325522637 1.917393768q -0.325522637 0.816400111 -0.949739027 1.27095257q -0.62421639 0.454551876 -1.515094841 0.454551876q -0.889471585 0 -1.50966773 -0.461006463q -0.620196146 -0.461005878 -0.942127872 -1.28037101q -0.321932018 -0.819365132 -0.321932018 -1.901520741q 0 -1.083933979 0.324635351 -1.914648378q 0.324635351 -0.830714691 0.947534829 -1.29923768q 0.622899479 -0.46852299 1.50155744 -0.46852299Z "/></symbol><symbol id="gB4FB53A8BA3E2C90C182D7896A44C01A" overflow="visible"><path d="M 0 0m 4.35116384 -0.211172017q -1.013197839 0 -1.824792641 0.364493594q -0.811594948 0.364493612 -1.28496691 1.077761945q -0.473372035 0.713268223 -0.473372035 1.752302518q 0 0.898046839 0.345513968 1.471675915q 0.345513895 0.573629075 0.930279469 0.909904295q 0.58476572 0.33627522 1.313444489 0.507370257q 0.728678769 0.171094453 1.492031521 0.25990957q 0.948604947 0.115988052 1.528133982 0.188413775q 0.579528451 0.072426307 0.847895575 0.236181808q 0.268367124 0.163754916 0.268367124 0.536591136v 0.06374445q 0 0.566806197 -0.234141457 0.970515788q -0.234141457 0.40370959 -0.690886724 0.624090219q -0.456745851 0.220380628 -1.125234282 0.220380628q -0.676745629 0 -1.174921167 -0.213928962q -0.49817583 -0.213928962 -0.80479821 -0.556843936q -0.306622088 -0.342914975 -0.42415632 -0.74012208l -1.983265238 0.350890625q 0.268499355 0.964116108 0.903170277 1.595418525q 0.634670922 0.631302416 1.532043973 0.94636687q 0.89737305 0.315063286 1.940582383 0.315063286q 0.733927429 0 1.466972828 -0.180370951q 0.733044815 -0.180372119 1.336053944 -0.593982053q 0.603009129 -0.413610518 0.967008114 -1.110420275q 0.363999569 -0.696809757 0.363999569 -1.735093451v -7.049141479h -2.022149086v 1.454779208h -0.086280596q -0.208201611 -0.412128592 -0.606078708 -0.795734407q -0.397877097 -0.383605797 -1.013635933 -0.626911307q -0.61575942 -0.24330551 -1.486817908 -0.24330551Z m 0.45006696 1.66550028q 0.872202206 0 1.473710716 0.333800572q 0.601507926 0.333800426 0.9135764 0.877471894q 0.312068474 0.543671614 0.312068474 1.16547761v 1.314470506q -0.11090616 -0.102058411 -0.405849242 -0.188157928q -0.294943666 -0.086099517 -0.680261481 -0.156007367q -0.385317814 -0.06990785 -0.772394431 -0.123891854q -0.387076616 -0.053984004 -0.68099339 -0.092277229q -0.578093547 -0.074840498 -1.067439151 -0.254956478q -0.489345312 -0.180115688 -0.781367183 -0.508671981q -0.292022163 -0.328556293 -0.292022163 -0.869948357q 0 -0.484466988 0.25273388 -0.817957243q 0.252733588 -0.333490255 0.698293144 -0.506421199q 0.445559555 -0.172930944 1.029944426 -0.172930944Z "/></symbol><symbol id="g2BC5594D43174F1EEB28859877FDE144" overflow="visible"><path d="M 0 0m 1.491306183 0v 14.259765625h 2.168880394v -12.385481051h 6.541772389v -1.874284574h -8.710652784Z "/></symbol><symbol id="g8CBEA968D56345707348EBFA95E42852" overflow="visible"><path d="M 0 0m 5.780118859 -0.22494232q -1.485805619 0 -2.598531145 0.683582599q -1.11272538 0.683582563 -1.729013288 1.909266282q -0.616287908 1.225683865 -0.616287908 2.843313178q 0 1.636290956 0.616287908 2.86685183q 0.616287908 1.230560875 1.729013288 1.915631461q 1.112725526 0.685071754 2.598531145 0.685071754q 1.494188988 0 2.606942844 -0.685071754q 1.112753856 -0.685070586 1.729041326 -1.915631461q 0.616288638 -1.230560875 0.616288638 -2.86685183q 0 -1.617629313 -0.616288638 -2.843313032q -0.61628747 -1.225683865 -1.729041326 -1.909266464q -1.112753856 -0.683582563 -2.606942844 -0.683582563Z m 0 1.769516077q 0.94251982 0 1.575942028 0.48683956q 0.633421624 0.486839706 0.951484394 1.319100869q 0.31806277 0.832261163 0.31806277 1.863078272q 0 1.042828774 -0.31806277 1.878449535q -0.31806277 0.835620177 -0.951484394 1.326418209q -0.633422208 0.490798616 -1.575942028 0.490798616q -0.935322225 0 -1.56541959 -0.489577794q -0.630097073 -0.48957721 -0.948159844 -1.323714876q -0.31806277 -0.83413825 -0.31806277 -1.882373691q 0 -1.033258754 0.31806277 -1.864299095q 0.31806277 -0.831040341 0.946939021 -1.317880046q 0.628876543 -0.48683956 1.566640413 -0.48683956Z "/></symbol><symbol id="g4B3327EB50F51B72FA2F4D21F90886CE" overflow="visible"><path d="M 0 0m 4.35678488 0l -3.979481341 10.515017533h 2.237847145l 2.084601158 -5.914149964q 0.330830002 -0.934361047 0.581921613 -1.872543442q 0.251091027 -0.93818225 0.513583016 -1.864353491h -0.58257817q 0.263211632 0.926171242 0.511953306 1.863760312q 0.248741674 0.937589216 0.570001364 1.873136622l 2.070924151 5.914149964h 2.22126112l -3.981853402 -10.515017533h -2.24817996Z "/></symbol><symbol id="gCB0D3E871483B8F01DE145D3FB8BBF15" overflow="visible"><path d="M 0 0m 5.849625123 -0.22494232q -1.554537916 0 -2.678841686 0.681665353q -1.124304062 0.681665317 -1.729400563 1.903105802q -0.605096355 1.221440339 -0.605096355 2.840577573q 0 1.615065587 0.604636356 2.848865438q 0.604636356 1.233799851 1.699345845 1.931651688q 1.094709635 0.697851253 2.550367367 0.697851253q 0.96578846 0 1.825252056 -0.32518034q 0.859463596 -0.32518034 1.520699525 -0.98721652q 0.661235929 -0.662035596 1.038072824 -1.667158484q 0.376838064 -1.005122888 0.376838064 -2.366193175v -0.686718696h -8.525534645v 1.559276634h 7.448609295l -0.953994381 -0.502759171q 0 0.969098699 -0.315508974 1.701802385q -0.315508389 0.73270427 -0.92123487 1.141453695q -0.60572648 0.408749425 -1.482560802 0.408749425q -0.873857325 0 -1.500257468 -0.414156091q -0.626400435 -0.414156091 -0.960832739 -1.114419782q -0.334432596 -0.700263691 -0.334432596 -1.566634572v -1.00650084q 0 -1.055423689 0.363980001 -1.808233559q 0.363980001 -0.752810016 1.032573867 -1.149048057q 0.668593574 -0.396238041 1.570788288 -0.396238041q 0.611636078 0 1.100992489 0.17964021q 0.489356411 0.17964021 0.833106101 0.526832882q 0.34374969 0.347192818 0.516484368 0.841438359l 1.965428162 -0.321210331q -0.232800889 -0.877250803 -0.846778727 -1.541718771q -0.613977253 -0.664468005 -1.530009317 -1.036996135q -0.916032648 -0.372528131 -2.062691486 -0.372528131Z "/></symbol><symbol id="g1D386507339DE03B9C24BEF96DC3FFE8" overflow="visible"><path d="M 0 0m 3.40842877 14.259765625v -14.259765625h -2.079453406v 14.259765625h 2.079453406Z "/></symbol><symbol id="g9A0E4236AEF7A52B5B852A082BC3DA83" overflow="visible"><path d="M 0 0m 5.772503614 -0.22494232q -1.484733748 0 -2.595258874 0.684386137q -1.110525271 0.684386174 -1.725741747 1.910337933q -0.615216476 1.22595154 -0.615216476 2.841437989q 0 1.634147799 0.615216476 2.865244317q 0.615216476 1.231097102 1.725741747 1.916703916q 1.110525125 0.685606813 2.595258874 0.685606813q 0.857439601 0 1.597248006 -0.234220314q 0.739808989 -0.234219146 1.325092244 -0.667428827q 0.58528384 -0.433209097 0.978713989 -1.046073592q 0.393429565 -0.612864494 0.558647132 -1.373130727l -1.99769876 -0.330175781q -0.096766233 0.418190646 -0.307824802 0.762794912q -0.211058569 0.34460485 -0.521404457 0.5954669q -0.310345304 0.250862634 -0.717000639 0.387592983q -0.406655335 0.136729765 -0.90436883 0.136729765q -0.938536668 0 -1.568748522 -0.488276362q -0.630212146 -0.488276362 -0.948447233 -1.322949672q -0.318235087 -0.834673893 -0.318235087 -1.885511613q 0 -1.035861033 0.318235087 -1.86684413q 0.318235087 -0.830982804 0.947494233 -1.317114404q 0.629259145 -0.4861316 1.569701523 -0.4861316q 0.50312016 0 0.912741101 0.137853038q 0.409620357 0.137852892 0.721082509 0.39471508q 0.311462152 0.256862187 0.522520721 0.615816227q 0.211058569 0.358953893 0.313963377 0.792121226l 1.999616444 -0.328989422q -0.15766716 -0.769755498 -0.55299747 -1.389480692q -0.395329726 -0.619725049 -0.984211779 -1.06669074q -0.588882637 -0.446965691 -1.335494351 -0.685377526q -0.746612298 -0.238411834 -1.608624434 -0.238411834Z "/></symbol><symbol id="gD54F68E9BA344367C230AC775F00D2F6" overflow="visible"><path d="M 0 0m 6.630819988 -0.175859699q -1.642755122 0 -2.918702834 0.793574705q -1.275947711 0.793574705 -2.002275918 2.250469398q -0.726328206 1.456894693 -0.726328206 3.438378096q 0 1.991542077 0.72553715 3.44843677q 0.72553715 1.456894693 2.002275918 2.253916106q 1.276738768 0.797022448 2.91949389 0.797022448q 0.964180012 0 1.819238768 -0.282890787q 0.855058756 -0.282890787 1.535557442 -0.825898843q 0.680497651 -0.543008056 1.134785318 -1.314091725q 0.454286633 -0.771084704 0.625399995 -1.749053617h -1.601054201q -0.138789225 0.659023762 -0.465928454 1.158574948q -0.327138195 0.499551187 -0.798377953 0.844150562q -0.471240792 0.34460041 -1.044707873 0.517295885q -0.573467081 0.172695475 -1.204913042 0.172695475q -1.172247958 0 -2.097209382 -0.589853687q -0.924961424 -0.589854722 -1.457402749 -1.71085114q -0.532441325 -1.120996418 -0.532441325 -2.719452395q 0 -1.589979415 0.53588855 -2.710184777q 0.53588855 -1.120205362 1.460849974 -1.706612341q 0.924961424 -0.58640698 2.090314932 -0.58640698q 0.631445961 0 1.204121985 0.1761427q 0.572676024 0.1761427 1.043915782 0.516504312q 0.471240792 0.340361612 0.799170561 0.842568967q 0.327929769 0.502207355 0.468301105 1.154336667h 1.599472089q -0.1626368 -0.96949235 -0.617715006 -1.737129312q -0.455078206 -0.767636962 -1.135576892 -1.313301187q -0.680497651 -0.545664225 -1.535556407 -0.832002237q -0.855058756 -0.286338012 -1.826133218 -0.286338012Z "/></symbol><symbol id="gF1EFA93865A14DCDAB0DDD012E1838F3" overflow="visible"><path d="M 0 0m 5.115445085 -0.2034375q -1.278944826 0 -2.243182783 0.607939332q -0.964237957 0.607939332 -1.502782676 1.700399783q -0.538544719 1.092460451 -0.538544719 2.533025966q 0 1.462830977 0.538544719 2.560320766q 0.538544719 1.097489789 1.502782676 1.706220176q 0.964237957 0.608730388 2.243182783 0.608730388q 1.287421389 0 2.254315515 -0.608730388q 0.966894126 -0.608730388 1.505438328 -1.706220176q 0.538545237 -1.097489789 0.538545237 -2.560320766q 0 -1.440565515 -0.538545237 -2.533025966q -0.538544202 -1.092460451 -1.505438328 -1.700399783q -0.966894126 -0.607939332 -2.254315515 -0.607939332Z m 0 1.353651776q 0.937284102 0 1.55290894 0.477401614q 0.615624838 0.477401614 0.917050862 1.270526209q 0.301426024 0.793124595 0.301426024 1.73978548q 0 0.956719561 -0.301426024 1.756738605q -0.301426024 0.800019045 -0.917050862 1.282449996q -0.615624838 0.482430952 -1.55290894 0.482430952q -0.92880754 0 -1.538328984 -0.481639895q -0.609521444 -0.481639895 -0.910947468 -1.279002771q -0.301426024 -0.797362876 -0.301426024 -1.760976887q 0 -0.948242998 0.301426024 -1.740576537q 0.301426024 -0.792333539 0.910156412 -1.269735153q 0.608730388 -0.477401614 1.53912004 -0.477401614Z "/></symbol><symbol id="g1F4E52694A405B29663FEF4B9E603364" overflow="visible"><path d="M 0 0m 3.956072354 -0.204569502q -0.896933513 0 -1.624618776 0.332734051q -0.727685263 0.332734051 -1.15603467 0.976727746q -0.428349407 0.643993695 -0.428349407 1.568505008q 0 0.805839438 0.318154094 1.309686852q 0.318154094 0.503847413 0.850087364 0.793124595q 0.53193327 0.289277182 1.182255414 0.433378744q 0.650322144 0.144101563 1.313076131 0.228867188q 0.849238362 0.111777425 1.375351238 0.171113362q 0.526112876 0.059335938 0.775155358 0.201855388q 0.249042482 0.14251945 0.249042482 0.4884764v 0.057187824q 0 0.574374027 -0.222763793 0.979158859q -0.222763793 0.404784832 -0.6643361 0.624384401q -0.441572306 0.219599569 -1.096415732 0.219599569q -0.667050214 0 -1.14942322 -0.211123006q -0.482373006 -0.211123006 -0.78012675 -0.536113605q -0.297753744 -0.324990599 -0.428182297 -0.677726109l -1.466445313 0.392983661q 0.30437192 0.856698813 0.894682961 1.372579179q 0.590311041 0.515880365 1.347323327 0.750960112q 0.757012286 0.235079746 1.547699041 0.235079746q 0.531643543 0 1.142464099 -0.132628403q 0.610820556 -0.132627368 1.15236239 -0.481182542q 0.541541834 -0.348555174 0.885749562 -0.991024702q 0.344207728 -0.642469528 0.344207728 -1.669047263v -6.232987552h -1.486112552v 1.285273275h -0.089061852q -0.161054688 -0.329003825 -0.509159751 -0.676034832q -0.348105063 -0.347031007 -0.908915246 -0.580419476q -0.560810182 -0.233388469 -1.367665732 -0.233388469Z m 0.251698651 1.336698651q 0.853984699 0 1.432539063 0.328212769q 0.578554363 0.328212769 0.874217939 0.854042645q 0.295663576 0.525829875 0.295663576 1.103818238v 1.277478604q -0.091660075 -0.103866863 -0.388680708 -0.188915489q -0.297020633 -0.085048625 -0.685418341 -0.152070069q -0.388397708 -0.067021444 -0.765604739 -0.116015706q -0.377207031 -0.048994262 -0.62765779 -0.079170287q -0.544648113 -0.0678125 -1.02040967 -0.233105469q -0.475761557 -0.165292969 -0.763964682 -0.479999838q -0.288203125 -0.314706869 -0.288203125 -0.85087842q 0 -0.477401614 0.248759482 -0.802450159q 0.248759482 -0.325048544 0.684794395 -0.492997682q 0.436034913 -0.167949138 1.003964601 -0.167949138Z "/></symbol><symbol id="g1A9BB9B763C6B5F68A578A20354DFCA8" overflow="visible"><path d="M 0 0m 4.490777683 -0.2034375q -0.971640463 0 -1.734248087 0.289502237q -0.762607625 0.289502237 -1.252666137 0.863985429q -0.490058513 0.574483192 -0.639022303 1.418293326l 1.444745851 0.282672458q 0.179705815 -0.783007975 0.737859828 -1.158574948q 0.558154013 -0.375566974 1.423213499 -0.375566974q 0.980683026 0 1.560311446 0.417499676q 0.57962842 0.417499676 0.57962842 1.003964601q 0 0.49480485 -0.348838174 0.817197225q -0.348838174 0.322392375 -1.033407514 0.478700726l -1.551326828 0.366640301q -1.280526938 0.303574138 -1.910165732 0.94276355q -0.629638793 0.639189413 -0.629638793 1.634677451q 0 0.804257326 0.449032757 1.420956221q 0.449032757 0.616698895 1.230516565 0.965312014q 0.781483808 0.348613119 1.780702071 0.348613119q 0.966894126 0 1.660332193 -0.303516192q 0.693438067 -0.303516192 1.123086586 -0.840870965q 0.429648519 -0.537354772 0.60675611 -1.24813813l -1.386426024 -0.289566908q -0.160154467 0.546564445 -0.625516403 0.971408682q -0.465361936 0.424844236 -1.371338012 0.424844236q -0.842909913 0 -1.393153365 -0.391503987q -0.550243452 -0.391503987 -0.550243452 -0.981699138q 0 -0.52238265 0.3798632 -0.838671632q 0.3798632 -0.316288981 1.175759854 -0.503339357l 1.434121175 -0.3390625q 1.2884375 -0.30515625 1.904062338 -0.93880827q 0.615624838 -0.63365202 0.615624838 -1.606874595q 0 -0.830703125 -0.466493938 -1.468876426q -0.466493938 -0.638173301 -1.297255008 -1.000067265q -0.83076107 -0.361893964 -1.915876961 -0.361893964Z "/></symbol><symbol id="g5F0803CD2189AE0997DBE927050A9468" overflow="visible"><path d="M 0 0m 5.05158114 9.378705912v -1.292733727h -4.889960451v 1.292733727h 4.889960451Z m -3.434255705 2.289572096h 1.509960127v -9.263866701q 0 -0.613592615 0.250624595 -0.890212898q 0.250624595 -0.276620283 0.842967858 -0.276620283q 0.153594236 0 0.378223143 0.027577801q 0.224628906 0.027577801 0.411113281 0.055155602l 0.255094657 -1.278944826q -0.234179525 -0.068944502 -0.527977989 -0.103416753q -0.293798463 -0.034472251 -0.57623914 -0.034472251q -1.214862552 0 -1.879314542 0.621561122q -0.66445199 0.621561122 -0.66445199 1.754372163v 9.388867025Z "/></symbol><symbol id="gB319DF93DBA93B269CFEE1DA20BDB7A6" overflow="visible"><path d="M 0 0m 2.798629408 12.630078125v -12.630078125h -1.509960127v 12.630078125h 1.509960127Z "/></symbol><symbol id="gEDC3CD02698011884FE371D003E908B9" overflow="visible"><path d="M 0 0m 6.618729091 -0.175859699q -1.628516111 0 -2.901299598 0.794365761q -1.272783487 0.794365761 -2.003349974 2.251260455q -0.730566487 1.456894693 -0.730566487 3.436795983q 0 1.989959965 0.730566487 3.446854658q 0.730566487 1.456894693 2.003349974 2.25470768q 1.272783487 0.797812986 2.901299598 0.797812986q 1.630098224 0 2.898643947 -0.797812986q 1.268544688 -0.797812986 1.995663433 -2.25470768q 0.72711978 -1.456894693 0.72711978 -3.446854658q 0 -1.97990129 -0.72711978 -3.436795983q -0.727118745 -1.456894693 -1.995663433 -2.251260455q -1.268545723 -0.794365761 -2.898643947 -0.794365761Z m 0 1.479218102q 1.130547037 0 2.050479124 0.575332193q 0.919932086 0.575332193 1.465312793 1.693955443q 0.545381742 1.11862325 0.545381742 2.733916461q 0 1.630664225 -0.545381742 2.75007853q -0.545380707 1.119414306 -1.465312793 1.694746499q -0.919932086 0.575332193 -2.050479124 0.575332193q -1.137441487 0 -2.060820799 -0.578779936q -0.923379312 -0.578778901 -1.468760536 -1.698193207q -0.545381224 -1.119414306 -0.545381224 -2.74318408q 0 -1.615293212 0.545381224 -2.730469236q 0.545381224 -1.115176024 1.468760536 -1.693955443q 0.923379312 -0.578779418 2.060820799 -0.578779418Z "/></symbol><symbol id="gF6722924235AD29EA824C4D9EDADF3C" overflow="visible"><path d="M 0 0m 5.661109309 -0.197109051q -0.838395357 0 -1.384625583 0.282498622q -0.546230226 0.282498622 -0.869805822 0.666375048q -0.323575597 0.383876426 -0.514690418 0.694113233h -0.141053228v -1.445877852h -1.462264977v 12.630078125h 1.509960127v -4.732288318h 0.099686527q 0.184786372 0.300178132 0.499885406 0.675577996q 0.315099034 0.375399864 0.856016922 0.654450743q 0.540917888 0.279051914 1.399996595 0.279051914q 1.183554525 0 2.080771039 -0.591777263q 0.897216513 -0.591777263 1.404511669 -1.679999433q 0.507294121 -1.08822217 0.507294121 -2.56642416q 0 -1.483514328 -0.503847413 -2.575183723q -0.503847413 -1.091669395 -1.401063926 -1.691132164q -0.897216513 -0.599462769 -2.080771039 -0.599462769Z m -0.227285075 1.352069664q 0.869471602 0 1.466278203 0.46073149q 0.5968066 0.46073149 0.904844074 1.258377366q 0.308037474 0.797645876 0.308037474 1.808389037q 0 1.005430822 -0.304590249 1.789287798q -0.304590249 0.783856976 -0.901396849 1.23424679q -0.5968066 0.450389814 -1.473172653 0.450389814q -0.865175376 0 -1.461698976 -0.436034913q -0.5965236 -0.436034913 -0.902978961 -1.214579551q -0.306455362 -0.778544638 -0.306455362 -1.823309939q 0 -1.043183188 0.309902587 -1.838963952q 0.309902587 -0.795780764 0.909873412 -1.242157352q 0.599970825 -0.446376588 1.4513573 -0.446376588Z "/></symbol><symbol id="g89747EAED773378EC9542498B0835B5C" overflow="visible"><path d="M 0 0m 5.218861837 -0.2034375q -1.362128339 0 -2.345467534 0.608730388q -0.983339195 0.608730388 -1.512899296 1.695087445q -0.529560101 1.086357057 -0.529560101 2.523758347q 0 1.440565515 0.523964763 2.541502528q 0.523964763 1.100937014 1.477352989 1.72424684q 0.953388226 0.623310862 2.222840378 0.623310862q 0.787638421 0 1.524025302 -0.266670256q 0.736386881 -0.26667129 1.322118695 -0.835334089q 0.585731814 -0.568662798 0.928298967 -1.466953368q 0.342568188 -0.89829057 0.342568188 -2.161530163v -0.591443043h -7.35765625v 1.278944826h 6.538593912l -0.694628015 -0.466776938q 0 0.92925765 -0.298769855 1.64451107q -0.298769855 0.71525342 -0.87834033 1.11845614q -0.579570475 0.40320272 -1.426210613 0.40320272q -0.845058026 0 -1.451415246 -0.41009717q -0.606357219 -0.41009717 -0.92925765 -1.083983889q -0.322900431 -0.673886719 -0.322900431 -1.472149816v -0.810251555q 0 -1.027362065 0.35579057 -1.756629441q 0.35579057 -0.729267375 1.004022546 -1.111220744q 0.648231976 -0.381953368 1.514423463 -0.381953368q 0.573692136 0 1.036172848 0.168174193q 0.462480712 0.168174193 0.790693481 0.500059242q 0.328212769 0.331885049 0.49831002 0.811884887l 1.468593426 -0.330933609q -0.210897951 -0.738927159 -0.738026938 -1.301203563q -0.527128987 -0.562276404 -1.307480793 -0.87850744q -0.780351806 -0.316231036 -1.755156493 -0.316231036Z "/></symbol><symbol id="gF8B6FD4BAF212536544928685B029A2" overflow="visible"><path d="M 0 0m 1.288669281 0v 9.378705912h 1.455936527v -1.448476076h 0.089061852q 0.259609213 0.715761476 0.907391078 1.149931793q 0.647781866 0.434169283 1.493856003 0.434169283q 0.174277587 0 0.394726157 -0.010058675q 0.22044857 -0.010058675 0.346580896 -0.02011735v -1.516854577q -0.070976725 0.018535237 -0.336689332 0.053232543q -0.265712607 0.034697306 -0.572450969 0.034697306q -0.643318529 0 -1.160221732 -0.273681114q -0.516903203 -0.273681114 -0.812566779 -0.767186852q -0.295663576 -0.493505738 -0.295663576 -1.15987406v -5.854488134h -1.509960127Z "/></symbol><symbol id="gD8DA9E7A36E1B2381BDEFC2C387D93E6" overflow="visible"><path d="M 0 0m 4.009195733 0l -3.589432054 9.378705912h 1.649315352l 2.001600752 -5.53294476q 0.307870364 -0.830368905 0.531708214 -1.657290585q 0.22383785 -0.82692168 0.463329713 -1.609029434h -0.519900317q 0.241073976 0.782107754 0.46412077 1.609029434q 0.223046794 0.82692168 0.522440596 1.657290585l 1.996854415 5.53294476h 1.644569016l -3.589432054 -9.378705912h -1.575174403Z "/></symbol><symbol id="g62A3956AC72F5F44B060C3199C0E6FD0" overflow="visible"><path d="M 0 0m 1.177226076 -3.453575273l 0.317144709 1.312851076l 0.295534234 -0.034472251q 0.431404467 -0.096522303 0.781998589 -0.03034986q 0.350594122 0.066172442 0.632018688 0.372460694q 0.281424565 0.306288252 0.49447063 0.927457209l 0.31238492 0.878500714l -3.591014166 9.405833602h 1.649315352l 2.001600752 -5.53294476q 0.307870364 -0.837263355 0.529843102 -1.66073781q 0.221972737 -0.823474455 0.461464601 -1.605582209h -0.526228766q 0.239491863 0.782107754 0.465702882 1.609029434q 0.226211019 0.82692168 0.52560482 1.657290585l 2.009061203 5.53294476h 1.637674565l -4.155663738 -10.840173106q -0.278710451 -0.725936041 -0.674227664 -1.200681486q -0.395517213 -0.474745445 -0.918465865 -0.705477746q -0.522948651 -0.2307323 -1.173611741 -0.2307323q -0.372068529 0 -0.654509206 0.048261151q -0.282440677 0.048261151 -0.420097899 0.096522303Z "/></symbol><symbol id="gF735DD8316561B3C3B7A374A76251C83" overflow="visible"><path d="M 0 0m 1.475153656 0v 12.630078125h 2.249119067l 3.128301673 -8.002775221q 0.110195313 -0.27814445 0.252431762 -0.693779013q 0.14223645 -0.415634563 0.299843912 -0.896200402q 0.157607462 -0.480565839 0.301709025 -0.948982835q 0.144101563 -0.468416996 0.249550538 -0.852126312h -0.354433513q 0.112343426 0.363025966 0.255653932 0.824548512q 0.143310506 0.461522546 0.300917969 0.94553561q 0.157607462 0.484013064 0.303291137 0.909989302q 0.145683675 0.425976238 0.254296875 0.711015139l 3.084336748 8.002775221h 2.25759563v -12.630078125h -1.569296064v 7.234122148q 0 0.3930861 0.004238281 0.886874838q 0.004238281 0.493788738 0.016953125 1.033690515q 0.012714844 0.539901776 0.025429688 1.095174565q 0.012714844 0.555272789 0.021191406 1.07822144h 0.149864011q -0.184336262 -0.586464925 -0.384327054 -1.183838043q -0.199989758 -0.597372084 -0.389130301 -1.147616053q -0.189140544 -0.550242934 -0.355507569 -1.004588029q -0.166367025 -0.454345095 -0.2850389 -0.757919233l -2.843262773 -7.234122148h -1.371736903l -2.880899248 7.234122148q -0.118671875 0.296679688 -0.278935506 0.740683107q -0.160263631 0.44400342 -0.350195231 0.987352939q -0.1899316 0.543348484 -0.394951212 1.147616053q -0.205019612 0.604266534 -0.420097899 1.218309259h 0.177891922q 0.016953125 -0.4746875 0.028876913 -1.016171389q 0.011923788 -0.541483889 0.021191406 -1.091727858q 0.009267619 -0.550242934 0.016953125 -1.061267798q 0.007685506 -0.511024864 0.007685506 -0.924794314v -7.234122148h -1.529511476Z "/></symbol><symbol id="g31E2BD453D0835788B68512F3B47952F" overflow="visible"><path d="M 0 0m 5.115445085 -0.2034375q -1.278944826 0 -2.243182783 0.607939332q -0.964237957 0.607939332 -1.502782676 1.700399783q -0.538544719 1.092460451 -0.538544719 2.533025966q 0 1.462830977 0.538544719 2.560320766q 0.538544719 1.097489789 1.502782676 1.706220176q 0.964237957 0.608730388 2.243182783 0.608730388q 0.700840573 0 1.318272579 -0.188291025q 0.617432005 -0.18829206 1.120205362 -0.538937402q 0.502773356 -0.350645342 0.85777287 -0.853077753q 0.354999514 -0.502432411 0.530975103 -1.132296259l -1.4648632 -0.337828059q -0.096972413 0.370820637 -0.304140139 0.680723224q -0.207167726 0.309902587 -0.506503582 0.537695718q -0.299335856 0.227793131 -0.689257731 0.353076456q -0.389921875 0.125283325 -0.862461262 0.125283325q -0.92880754 0 -1.538328984 -0.481639895q -0.609521444 -0.481639895 -0.910947468 -1.279002771q -0.301426024 -0.797362876 -0.301426024 -1.760976887q 0 -0.948242998 0.301426024 -1.740576537q 0.301426024 -0.792333539 0.910156412 -1.269735153q 0.608730388 -0.477401614 1.53912004 -0.477401614q 0.479433837 0 0.87466805 0.127148437q 0.395234213 0.127148437 0.698300295 0.361836019q 0.303066082 0.234687581 0.510233808 0.559170125q 0.207167726 0.324482543 0.308886476 0.710674193l 1.462715087 -0.337828059q -0.16908114 -0.640488524 -0.527527878 -1.149815385q -0.358446739 -0.509326861 -0.865458376 -0.874552159q -0.507011638 -0.365225298 -1.131338093 -0.557755122q -0.624326456 -0.192529824 -1.330479367 -0.192529824Z "/></symbol><symbol id="g5EA5AA91B9B5ACF86EE6DEDD46DA85D6" overflow="visible"><path d="M 0 0m 2.798629408 5.597027035v -5.597027035h -1.509960127v 12.630078125h 1.509960127v -5.524788966h -0.295997796q 0.4338868 1.29488184 1.231757731 1.848231053q 0.797870932 0.553350248 1.871230145 0.553350248q 0.948358889 0 1.677060263 -0.394160156q 0.728701375 -0.394160156 1.139248655 -1.185927694q 0.41054728 -0.791767538 0.41054728 -1.9938573v -5.93292531h -1.516854577v 5.81052321q 0 1.106133461 -0.569003744 1.71938513q -0.569003744 0.613251669 -1.563925781 0.613251669q -0.673378663 0 -1.214296551 -0.290351238q -0.540917888 -0.290351238 -0.855341756 -0.85748987q -0.314423869 -0.567138631 -0.314423869 -1.398291867Z "/></symbol><symbol id="gD7CC367880DEA31487635CA9571DD61" overflow="visible"><path d="M 0 0m 1.196224875 0v 1.183438635l 4.251272368 4.46806211q 0.722540035 0.758144288 1.195870478 1.331386313q 0.473330443 0.573242025 0.710674193 1.096923788q 0.23734375 0.523681762 0.23734375 1.119639361q 0 0.683321447 -0.313632813 1.182306633q -0.313632813 0.498985186 -0.855566812 0.766222477q -0.541933999 0.267236257 -1.243790684 0.267236257q -0.747403722 0 -1.291427889 -0.305098305q -0.544024167 -0.305098305 -0.838555741 -0.858615146q -0.294531574 -0.553516841 -0.294531574 -1.300354562h -1.520584803q 0 1.145802159 0.516279256 2.015607982q 0.516279256 0.869805822 1.41422888 1.354494052q 0.897949624 0.48468823 2.047482009 0.48468823q 1.138457599 0 2.01442476 -0.473613443q 0.875967162 -0.473613443 1.375801349 -1.282276678q 0.499834187 -0.8086622 0.499834187 -1.825733809q 0 -0.710333247 -0.255312986 -1.371447177q -0.255312986 -0.66111393 -0.87172888 -1.464355145q -0.616415894 -0.803241215 -1.700515673 -1.926675472l -2.885182023 -2.971427321v -0.085897627h 5.899339828v -1.404511151h -8.091721182Z "/></symbol><symbol id="gE84A35213EF9512CF3E637784147A5E1" overflow="visible"><path d="M 0 0m 5.447381353 -0.175859699q -1.405527263 0 -2.402822468 0.77001013q -0.997295206 0.77001013 -1.52917053 2.217637205q -0.531875324 1.447627075 -0.531875324 3.494774864q 0 2.041835451 0.535322549 3.493701324q 0.535322549 1.451864839 1.532617755 2.228768902q 0.997295206 0.776905098 2.395928018 0.776905098q 1.398632813 0 2.400166299 -0.776905098q 1.001533487 -0.776904063 1.532617238 -2.228768902q 0.531084785 -1.451865873 0.531084785 -3.493701324q 0 -2.040253339 -0.527637043 -3.491327639q -0.527637043 -1.4510743 -1.525723305 -2.22108443q -0.998086262 -0.77001013 -2.410507975 -0.77001013Z m 0 1.397616701q 0.931855874 0 1.586358354 0.605791218q 0.65450248 0.605791218 1.000684485 1.741367593q 0.346182005 1.135576375 0.346182005 2.737646687q 0 1.610546875 -0.346182005 2.753808756q -0.346182005 1.143261881 -1.000684485 1.749052582q -0.65450248 0.605791736 -1.586358354 0.605791736q -0.931855874 0 -1.586358354 -0.609238443q -0.65450248 -0.609238443 -1.000684485 -1.749053617q -0.346182005 -1.139814138 -0.346182005 -2.750361013q 0 -1.602070312 0.346182005 -2.737646687q 0.346182005 -1.135576375 1.000684485 -1.741367593q 0.65450248 -0.605791218 1.586358354 -0.605791218Z "/></symbol><symbol id="gFAF1380C133A4D635E2CFEF0FDAC4BB1" overflow="visible"><path d="M 0 0m 5.415739107 -0.175859699q -0.837365794 0 -1.630432444 0.308770585q -0.793066649 0.308770585 -1.425702558 1.003507764q -0.632635908 0.694737179 -1.004363492 1.846533568q -0.371727583 1.151796389 -0.371727583 2.839430108q 0 1.655643802 0.309169476 2.949111156q 0.309169476 1.29346632 0.907333133 2.194862652q 0.598163657 0.901397367 1.456669638 1.370490046q 0.858505981 0.469091644 1.955596879 0.469091644q 1.067480874 0 1.905869505 -0.423037586q 0.838388631 -0.423036551 1.368456271 -1.177450614q 0.530068674 -0.754414063 0.67631835 -1.7493361h -1.560819502q -0.205585613 0.839629798 -0.799736044 1.389024248q -0.594150431 0.54939445 -1.572685344 0.54939445q -0.99005981 0 -1.692540441 -0.579004474q -0.702480631 -0.579004474 -1.0714941 -1.656035967q -0.369013469 -1.077031493 -0.369013469 -2.575350833h 0.085897627q 0.329569826 0.519218426 0.806630495 0.893261232q 0.477060668 0.374042807 1.067480874 0.573242025q 0.590420206 0.199199219 1.247861855 0.199199219q 1.096074786 0 1.993799355 -0.536396606q 0.897724569 -0.536396606 1.432030489 -1.481533325q 0.534306955 -0.945136719 0.534306955 -2.162597494q 0 -1.190899086 -0.527920561 -2.152197874q -0.527919526 -0.961298788 -1.484188976 -1.527138307q -0.95626945 -0.56583952 -2.236796389 -0.56583952Z m 0 1.404511151q 0.762890625 0 1.375576293 0.382236369q 0.612685668 0.382236369 0.971074462 1.025381062q 0.358388793 0.643144693 0.358388793 1.433047118q 0 0.776113524 -0.34567395 1.409199543q -0.34567395 0.633086019 -0.949092 1.006845825q -0.60341805 0.373759806 -1.366308675 0.373759806q -0.57640625 0 -1.073867269 -0.22383785q -0.497461019 -0.22383785 -0.872011881 -0.61720695q -0.374550862 -0.3933691 -0.583808756 -0.900097737q -0.209257894 -0.506728637 -0.209257894 -1.065615761q 0 -0.753848062 0.351494343 -1.396201699q 0.351494343 -0.642353637 0.963388956 -1.034931681q 0.611894612 -0.392578044 1.380097575 -0.392578044Z "/></symbol></defs></svg>