<svg viewBox="0 0 841.88976378 473.562992126" width="841.88976378pt" height="473.562992126pt" xmlns="http://www.w3.org/2000/svg" xmlns:xlink="http://www.w3.org/1999/xlink" xmlns:h5="http://www.w3.org/1999/xhtml"><path fill="#f8f8f7" fill-rule="nonzero" d="M 0 0v 473.562992126h 841.88976378v -473.562992126Z "/><g><g/><g><g data-typst-label="mosaic-slide"><g data-typst-label="mosaic-cell-header"><g><g transform="translate(27.5 15.125)"><g transform="matrix(1 0 0 -1 0 26.88984375)"><use xlink:href="#g95FB2F53DACFE36740F6E5DF44013463" x="0" y="0" fill="#18181b" fill-rule="nonzero"/><use xlink:href="#gCBF40FFBA84EC1DBAF28FEF136EDFABC" x="26.7815625" y="0" fill="#18181b" fill-rule="nonzero"/><use xlink:href="#g86781262B2286AC3DB6022D3B6E03DE0" x="47.842265625" y="0" fill="#18181b" fill-rule="nonzero"/><use xlink:href="#gA327085BADD3C83C8C15558A2F007103" x="66.863671875" y="0" fill="#18181b" fill-rule="nonzero"/><use xlink:href="#g86781262B2286AC3DB6022D3B6E03DE0" x="79.4784375" y="0" fill="#18181b" fill-rule="nonzero"/></g></g></g></g><g transform="translate(0 57.13984375)"><g data-typst-label="mosaic-cell-body"><g><g transform="matrix(1 0 0 -1 27.5 43.505859375)"><use xlink:href="#gF6EC94589BB041E781A946C8B2726299" x="0" y="0" fill="#18181b" fill-rule="nonzero"/><use xlink:href="#g603DA59AD2E602A80C9EA30582DB5A57" x="16.145507813" y="0" fill="#18181b" fill-rule="nonzero"/><use xlink:href="#gD9B375AF9EEA5F6CDA37E5C3860E97B" x="28.4453125" y="0" fill="#18181b" fill-rule="nonzero"/><use xlink:href="#g376158ED59D8480BBCCDCBAF3534E3D7" x="51.69140625" y="0" fill="#18181b" fill-rule="nonzero"/><use xlink:href="#g44402B276530A0D7171090A349F68A47" x="64.635742188" y="0" fill="#18181b" fill-rule="nonzero"/><use xlink:href="#g376158ED59D8480BBCCDCBAF3534E3D7" x="72.219726563" y="0" fill="#18181b" fill-rule="nonzero"/><use xlink:href="#g9C58F58B53B744C5EDC36C60F3AFB013" x="85.1640625" y="0" fill="#18181b" fill-rule="nonzero"/><use xlink:href="#g1878026628E2565C466DE8DD6C7AF9" x="96.72265625" y="0" fill="#18181b" fill-rule="nonzero"/><use xlink:href="#g9BF2006727B2E50523708013C4E45D4" x="110.580078125" y="0" fill="#18181b" fill-rule="nonzero"/><use xlink:href="#gC7E1E6B02E5B7A12270C5F8DB145DBD3" x="123.159179688" y="0" fill="#18181b" fill-rule="nonzero"/><use xlink:href="#gAC593C57408873B18C312AE93112021F" x="141.41015625" y="0" fill="#18181b" fill-rule="nonzero"/><use xlink:href="#gBC2B4D13A9844602FF58B2551BEFDCD3" x="148.446289063" y="0" fill="#18181b" fill-rule="nonzero"/><use xlink:href="#gAC593C57408873B18C312AE93112021F" x="153.516601563" y="0" fill="#18181b" fill-rule="nonzero"/><use xlink:href="#g90DDA3808CA064F2C0CAC8C99AE9C14" x="160.552734375" y="0" fill="#18181b" fill-rule="nonzero"/><use xlink:href="#gC7E1E6B02E5B7A12270C5F8DB145DBD3" x="165.526367188" y="0" fill="#18181b" fill-rule="nonzero"/><use xlink:href="#gF22008891B25FB4F255A3A755F428AD" x="183.77734375" y="0" fill="#18181b" fill-rule="nonzero"/><use xlink:href="#g5611B29AE385F6CAC16B5C3E07D92BF3" x="195.701171875" y="0" fill="#18181b" fill-rule="nonzero"/><use xlink:href="#gBBD3E27619A70A112D0B41B5C569D8F" x="208.26953125" y="0" fill="#18181b" fill-rule="nonzero"/><use xlink:href="#g9C10B766C98DC49AC11DAC6AF037428C" x="227.165039063" y="0" fill="#18181b" fill-rule="nonzero"/><use xlink:href="#gC7E1E6B02E5B7A12270C5F8DB145DBD3" x="238.26171875" y="0" fill="#18181b" fill-rule="nonzero"/><use xlink:href="#g79494D17143D3E89247AA9FEFF891BFA" x="250.625976563" y="0" fill="#18181b" fill-rule="nonzero"/><use xlink:href="#gAC593C57408873B18C312AE93112021F" x="262.721679688" y="0" fill="#18181b" fill-rule="nonzero"/><use xlink:href="#gBC2B4D13A9844602FF58B2551BEFDCD3" x="269.7578125" y="0" fill="#18181b" fill-rule="nonzero"/><use xlink:href="#g603DA59AD2E602A80C9EA30582DB5A57" x="274.731445313" y="0" fill="#18181b" fill-rule="nonzero"/><use xlink:href="#g5611B29AE385F6CAC16B5C3E07D92BF3" x="287.428710938" y="0" fill="#18181b" fill-rule="nonzero"/><use xlink:href="#g4A0EEB31420167D6BF991A2F3EE92A27" x="305.883789063" y="0" fill="#18181b" fill-rule="nonzero"/><use xlink:href="#gF22008891B25FB4F255A3A755F428AD" x="319.064453125" y="0" fill="#18181b" fill-rule="nonzero"/><use xlink:href="#g8D6A3BC34639B16B0AFDC9F7B9060B9F" x="330.98828125" y="0" fill="#18181b" fill-rule="nonzero"/><use xlink:href="#gC7E1E6B02E5B7A12270C5F8DB145DBD3" x="344.0078125" y="0" fill="#18181b" fill-rule="nonzero"/><use xlink:href="#g9C10B766C98DC49AC11DAC6AF037428C" x="356.372070313" y="0" fill="#18181b" fill-rule="nonzero"/><use xlink:href="#g79494D17143D3E89247AA9FEFF891BFA" x="373.35546875" y="0" fill="#18181b" fill-rule="nonzero"/><use xlink:href="#gF22008891B25FB4F255A3A755F428AD" x="385.623046875" y="0" fill="#18181b" fill-rule="nonzero"/><use xlink:href="#g949857AA274341213E6AD57D234668AD" x="397.546875" y="0" fill="#18181b" fill-rule="nonzero"/><use xlink:href="#g949857AA274341213E6AD57D234668AD" x="405.49609375" y="0" fill="#18181b" fill-rule="nonzero"/><use xlink:href="#gBC2B4D13A9844602FF58B2551BEFDCD3" x="413.370117188" y="0" fill="#18181b" fill-rule="nonzero"/><use xlink:href="#gC7E1E6B02E5B7A12270C5F8DB145DBD3" x="418.34375" y="0" fill="#18181b" fill-rule="nonzero"/><use xlink:href="#gBBD3E27619A70A112D0B41B5C569D8F" x="430.708007813" y="0" fill="#18181b" fill-rule="nonzero"/><use xlink:href="#g5611B29AE385F6CAC16B5C3E07D92BF3" x="449.603515625" y="0" fill="#18181b" fill-rule="nonzero"/><use xlink:href="#g603DA59AD2E602A80C9EA30582DB5A57" x="462.171875" y="0" fill="#18181b" fill-rule="nonzero"/><use xlink:href="#g79494D17143D3E89247AA9FEFF891BFA" x="480.755859375" y="0" fill="#18181b" fill-rule="nonzero"/><use xlink:href="#g603DA59AD2E602A80C9EA30582DB5A57" x="492.8515625" y="0" fill="#18181b" fill-rule="nonzero"/><use xlink:href="#g2E5D8BDB1B26996395A71EB7B84E1123" x="505.548828125" y="0" fill="#18181b" fill-rule="nonzero"/><use xlink:href="#g5611B29AE385F6CAC16B5C3E07D92BF3" x="518.127929688" y="0" fill="#18181b" fill-rule="nonzero"/><use xlink:href="#gAC593C57408873B18C312AE93112021F" x="530.696289063" y="0" fill="#18181b" fill-rule="nonzero"/><use xlink:href="#gC7E1E6B02E5B7A12270C5F8DB145DBD3" x="537.517578125" y="0" fill="#18181b" fill-rule="nonzero"/><use xlink:href="#g949857AA274341213E6AD57D234668AD" x="549.881835938" y="0" fill="#18181b" fill-rule="nonzero"/><use xlink:href="#gF22008891B25FB4F255A3A755F428AD" x="563.524414063" y="0" fill="#18181b" fill-rule="nonzero"/><use xlink:href="#gAC593C57408873B18C312AE93112021F" x="575.448242188" y="0" fill="#18181b" fill-rule="nonzero"/><use xlink:href="#gF22008891B25FB4F255A3A755F428AD" x="588.37109375" y="0" fill="#18181b" fill-rule="nonzero"/><use xlink:href="#g90DDA3808CA064F2C0CAC8C99AE9C14" x="600.294921875" y="0" fill="#18181b" fill-rule="nonzero"/><use xlink:href="#g90DDA3808CA064F2C0CAC8C99AE9C14" x="605.268554688" y="0" fill="#18181b" fill-rule="nonzero"/><use xlink:href="#g9C58F58B53B744C5EDC36C60F3AFB013" x="610.2421875" y="0" fill="#18181b" fill-rule="nonzero"/></g></g></g></g></g></g><g><g data-typst-label="mosaic-foreground"><g transform="translate(792.929558701 443.359183532)"><g transform="matrix(1 0 0 -1 0 10.403808594)"><use xlink:href="#gB87F9A3F70EE3193E91AE55358B48A9F" x="0" y="0" fill="#4a6274" fill-rule="nonzero"/><use xlink:href="#g50FCAE6E9159DEDA0147C8DB9F88BEF1" x="8.707080078" y="0" fill="#4a6274" fill-rule="nonzero"/><use xlink:href="#gB87F9A3F70EE3193E91AE55358B48A9F" x="13.853125" y="0" fill="#4a6274" fill-rule="nonzero"/></g></g></g></g></g><defs><symbol id="g95FB2F53DACFE36740F6E5DF44013463" overflow="visible"><path d="M 0 0m 13.961082988 -0.433125q -3.698169723 0 -6.557142684 1.715909851q -2.858972962 1.715909851 -4.481734986 4.834051645q -1.622762024 3.118141794 -1.622762024 7.310038505q 0 4.22799046 1.616986341 7.34938056q 1.616986341 3.121388998 4.481734986 4.834051094q 2.864748645 1.712662096 6.562918367 1.712662096q 2.280367613 0 4.24384316 -0.677108088q 1.963474445 -0.677108088 3.492755442 -1.945429773q 1.529280996 -1.268321686 2.520050468 -3.044114799q 0.990769472 -1.775790911 1.330782995 -3.984706821h -4.847070751q -0.266385269 1.279922619 -0.863038044 2.280471153q -0.596650572 1.000546331 -1.464374371 1.691401062q -0.867723799 0.690852528 -1.971145248 1.045663519q -1.10342145 0.354810991 -2.389839578 0.354810991q -2.469610863 0 -4.237903905 -1.195464478q -1.768294144 -1.195464478 -2.718317156 -3.355013638q -0.950023012 -2.159548059 -0.950023012 -5.066602879q 0 -2.889007945 0.946775258 -5.039533668q 0.946775258 -2.150525723 2.718316605 -3.345989649q 1.771541348 -1.195463927 4.24115221 -1.195463927q 1.286418128 0 2.38081614 0.351562686q 1.094398012 0.351562686 1.962122912 1.039888937q 0.8677249 0.688326252 1.470151706 1.679850247q 0.602426805 0.991523995 0.88685895 2.264951105h 4.835518284q -0.334955463 -2.197365646 -1.328253965 -3.969909904q -0.993298502 -1.772544258 -2.525826702 -3.035088608q -1.5325282 -1.262544351 -3.492755442 -1.936405785q -1.960228343 -0.673861434 -4.240595956 -0.673861434Z "/></symbol><symbol id="gCBF40FFBA84EC1DBAF28FEF136EDFABC" overflow="visible"><path d="M 0 0m 10.532074299 -0.433125q -2.797231479 0 -4.918073595 1.25281816q -2.120842116 1.25281816 -3.302175529 3.49063066q -1.181333413 2.2378125 -1.181333413 5.195323448q 0 2.969062314 1.181333413 5.215178976q 1.181333413 2.246115561 3.302175529 3.507957158q 2.120842116 1.261841598 4.918073595 1.261841598q 2.815278354 0 4.927096481 -1.261841598q 2.111819229 -1.261841598 3.293153744 -3.507957158q 1.181332312 -2.246116662 1.181332312 -5.215178976q 0 -2.957510948 -1.181332312 -5.195323448q -1.181334515 -2.2378125 -3.293153744 -3.49063066q -2.111818128 -1.25281816 -4.927096481 -1.25281816Z m 0 3.805509195q 1.466921024 0 2.540392857 0.741395674q 1.073471832 0.741395674 1.661820445 2.122752657q 0.588348613 1.381356983 0.588348613 3.269114742q 0 1.917356 -0.588348613 3.295464678q -0.588348613 1.378109779 -1.661820445 2.131056819q -1.073471832 0.75294704 -2.540392857 0.75294704q -1.448874149 0 -2.531369419 -0.747171907q -1.08249527 -0.747170806 -1.670843883 -2.131055717q -0.588348613 -1.383884912 -0.588348613 -3.301240911q 0 -1.899309125 0.588348613 -3.274890425q 0.588348613 -1.3755813 1.6650682 -2.116976974q 1.076719587 -0.741395674 2.537145102 -0.741395674Z "/></symbol><symbol id="g86781262B2286AC3DB6022D3B6E03DE0" overflow="visible"><path d="M 0 0m 9.499752073 -0.452611527q -2.325099277 0 -4.164038279 0.729441712q -1.838939002 0.729441712 -2.95530025 2.147192602q -1.116361248 1.41775089 -1.26867141 3.467159479h 4.499860067q 0.149430857 -1.39111732 1.127244008 -2.160303133q 0.977813151 -0.769185812 2.675727346 -0.769185812q 1.653885283 0 2.598501062 0.651529748q 0.944615779 0.651529748 0.944615779 1.661486142q 0 0.861965189 -0.696629863 1.388238015q -0.696629863 0.526272826 -1.906507387 0.776049771l -3.249843006 0.669910927q -2.730836735 0.573181043 -4.14533987 1.959174213q -1.414503136 1.385993171 -1.414503136 3.545825415q 0 1.747633424 0.946724038 3.066846328q 0.946724038 1.319212904 2.676661963 2.054797096q 1.729937925 0.735586395 4.061532712 0.735586395q 2.309931707 0 4.064412017 -0.774927349q 1.754480309 -0.774926248 2.758592176 -2.191957312q 1.004112968 -1.417031064 1.058253593 -3.376908031h -4.281892061q -0.018046875 1.269108152 -0.979252253 2.105794058q -0.961206479 0.836685905 -2.516185327 0.836685905q -1.497222018 0 -2.368562021 -0.669577174q -0.871340003 -0.669576073 -0.871340003 -1.643438716q 0 -0.85546968 0.673895581 -1.390765944q 0.673895581 -0.535296264 1.857088315 -0.795184922l 3.431717262 -0.708883982q 2.840557637 -0.597723427 4.177098141 -1.875083971q 1.336539402 -1.277360544 1.336539402 -3.36718184q 0 -1.859530878 -1.034430485 -3.22349252q -1.034430485 -1.363961642 -2.857849989 -2.106394372q -1.823420606 -0.74243273 -4.178118124 -0.74243273Z "/></symbol><symbol id="gA327085BADD3C83C8C15558A2F007103" overflow="visible"><path d="M 0 0m 12.08098722 19.0575v -3.661134195h -11.777806549v 3.661134195h 11.777806549Z m -8.449949141 5.1975h 4.561935854v -18.790583811q 0 -1.009922247 0.414726748 -1.40660212q 0.414726748 -0.396679873 1.522818532 -0.396679873q 0.441060162 0 1.016734986 0q 0.575674825 0 0.93373302 0v -3.661134195q -0.475714259 0 -1.239776473 0q -0.764061112 0 -1.506091247 0q -2.922051659 0 -4.31306654 1.177717209q -1.391014881 1.177717209 -1.391014881 3.624088755v 19.453194036Z "/></symbol><symbol id="gF6EC94589BB041E781A946C8B2726299" overflow="visible"><path d="M 0 0m 1.780832291 0v 16.005859375h 2.325095475l 6.54795599 -10.318459213q 0.238717318 -0.368818164 0.587243736 -0.95844847q 0.348525763 -0.589630306 0.751360416 -1.309363753q 0.402834654 -0.719733447 0.782393694 -1.491990119l -0.242299795 -0.171856642q -0.063263774 0.76629287 -0.099071503 1.573751122q -0.03580904 0.807458252 -0.046551228 1.506895036q -0.010742188 0.699436784 -0.010742188 1.121970475v 10.047501564h 1.99327898v -16.005859375h -2.346580505l -5.829424024 9.176208138q -0.325854003 0.519217968 -0.728686035 1.183444321q -0.402832031 0.664226353 -0.928004622 1.570747912q -0.525172591 0.90652287 -1.230582356 2.131146669l 0.309143424 0.229142189q 0.053710938 -1.216252446 0.089518994 -2.21408391q 0.035808057 -0.997830153 0.055502832 -1.728301525q 0.019694775 -0.730471373 0.019694775 -1.150611281v -9.197692513h -1.999246061Z "/></symbol><symbol id="g603DA59AD2E602A80C9EA30582DB5A57" overflow="visible"><path d="M 0 0m 6.341497362 -0.2578125q -1.604169726 0 -2.815055013 0.766276807q -1.210885286 0.766276807 -1.886450797 2.134118408q -0.675565511 1.367841601 -0.675565511 3.1629861q 0 1.81782347 0.675565511 3.19342339q 0.675565511 1.375599265 1.886450797 2.144262314q 1.210885286 0.76866436 2.815055013 0.76866436q 1.614911914 0 2.826394498 -0.76866436q 1.211482584 -0.768663049 1.887047768 -2.144262314q 0.675565839 -1.375599921 0.675565839 -3.19342339q 0 -1.795144498 -0.675565839 -3.1629861q -0.675565183 -1.367841601 -1.887047768 -2.134118408q -1.211482584 -0.766276807 -2.826394498 -0.766276807Z m 0 1.696075618q 1.151807845 0 1.926439941 0.580082715q 0.774632096 0.580082715 1.164930046 1.571350455q 0.390297949 0.991267741 0.390297949 2.215872526q 0 1.240120769 -0.390297949 2.237356901q -0.390297949 0.997236133 -1.164930046 1.585077167q -0.774632096 0.587840378 -1.926439941 0.587840378q -1.141065657 0 -1.912116259 -0.585453808q -0.771050602 -0.585453808 -1.161348552 -1.582092643q -0.390297949 -0.996638834 -0.390297949 -2.242727995q 0 -1.229378581 0.390297949 -2.218259424q 0.390297949 -0.988880843 1.158961654 -1.568963557q 0.768663704 -0.580082715 1.914503157 -0.580082715Z "/></symbol><symbol id="gD9B375AF9EEA5F6CDA37E5C3860E97B" overflow="visible"><path d="M 0 0m 4.150091112 0l -3.589089811 11.713790298h 1.98969847l 1.446616113 -5.127616405q 0.315102637 -1.107635319 0.642144352 -2.397302002q 0.327041715 -1.289666682 0.650501937 -2.760179311h -0.299591243q 0.317491829 1.428733885 0.640952051 2.721384764q 0.323460221 1.292650878 0.64453125 2.436096549l 1.439453125 5.127616405h 1.947928905l 1.41796875 -5.127616405q 0.315101981 -1.125540495 0.633191109 -2.415207177q 0.318089128 -1.289666682 0.635581613 -2.742274135h -0.319881678q 0.33420372 1.440670669 0.663035035 2.730337352q 0.328831315 1.289666682 0.649901032 2.427143961l 1.4609375 5.127616405h 1.989699125l -3.589089155 -11.713790298h -1.918078423l -1.528974414 5.311428189q -0.226780534 0.803279459 -0.44520545 1.634011686q -0.218425572 0.830732226 -0.428495526 1.687725246q -0.210069954 0.856992364 -0.430882096 1.719955742h 0.453556478q -0.21484375 -0.856994987 -0.430284798 -1.716971874q -0.215441048 -0.859976888 -0.43386662 -1.696677506q -0.218424916 -0.836700618 -0.449979246 -1.628043294l -1.543295801 -5.311428189h -1.898982584Z "/></symbol><symbol id="g376158ED59D8480BBCCDCBAF3534E3D7" overflow="visible"><path d="M 0 0m 1.324904978 0v 1.538512826l 5.484465659 5.51554352q 0.94888711 0.952475488 1.561189175 1.673396647q 0.612302721 0.720921159 0.913083971 1.388726711q 0.30078125 0.667804897 0.30078125 1.442432404q 0 0.904723763 -0.397460938 1.564766407q -0.397460938 0.660042644 -1.098087728 1.013935566q -0.700626791 0.353891611 -1.631608725 0.353891611q -0.994240463 0 -1.708591342 -0.408795834q -0.714350879 -0.408795834 -1.098680437 -1.151788831q -0.384329557 -0.742992997 -0.384329557 -1.750361562h -1.888244987q 0 1.499123931 0.65288654 2.640175819q 0.65288654 1.141051888 1.804685205 1.780208111q 1.151798666 0.639154911 2.647342741 0.639154911q 1.462127507 0 2.584684134 -0.605738997q 1.122555971 -0.605738997 1.762908101 -1.651308417q 0.64035213 -1.04556942 0.64035213 -2.378786087q 0 -0.941723466 -0.340166211 -1.801691175q -0.340165555 -0.859967709 -1.117184877 -1.844674349q -0.777018666 -0.98470664 -2.089963913 -2.297661066l -3.869535387 -3.818241179v -0.081168294h 7.609024346v -1.760528743h -10.33754915Z "/></symbol><symbol id="g44402B276530A0D7171090A349F68A47" overflow="visible"><path d="M 0 0m 7.242641926 16.7578125l -5.15625 -19.1640625h -1.74501276l 5.15625 19.1640625h 1.74501276Z "/></symbol><symbol id="g9C58F58B53B744C5EDC36C60F3AFB013" overflow="visible"><path d="M 0 0m 2.83477962 -0.15874362q -0.582467318 0 -0.992462337 0.409995019q -0.409995019 0.409995019 -0.409995019 0.992462337q 0 0.587241113 0.409995019 0.994849235q 0.409995019 0.407608122 0.992462337 0.407608122q 0.587241113 0 0.994849235 -0.407608122q 0.407608122 -0.407608122 0.407608122 -0.994849235q 0 -0.582467318 -0.407608122 -0.992462337q -0.407608122 -0.409995019 -0.994849235 -0.409995019Z "/></symbol><symbol id="g1878026628E2565C466DE8DD6C7AF9" overflow="visible"><path d="M 0 0m 0.823592186 14.23936224v 1.766497135h 12.21027422v -1.766497135h -5.097756088v -14.23936224h -1.993277669v 14.23936224h -5.119240463Z "/></symbol><symbol id="g9BF2006727B2E50523708013C4E45D4" overflow="visible"><path d="M 0 0m 3.43035996 6.949028254v -6.949028254h -1.885855794v 16.005859375h 1.885855794v -7.131594956h -0.43325752q 0.552625358 1.607753515 1.558214486 2.313156068q 1.005589128 0.705403209 2.360299349 0.705403209q 1.185224414 0 2.115615606 -0.499511719q 0.930391848 -0.499511719 1.464514732 -1.50151968q 0.534122229 -1.002007306 0.534122229 -2.522624135v -7.369168162h -1.89182353v 7.222356737q 0 1.423932552 -0.715550065 2.191404283q -0.715550065 0.767471075 -1.981933594 0.767471075q -0.845053613 0 -1.527779818 -0.35688138q -0.682726204 -0.35688138 -1.08257404 -1.074221373q -0.399847835 -0.717339337 -0.399847835 -1.801101089Z "/></symbol><symbol id="gC7E1E6B02E5B7A12270C5F8DB145DBD3" overflow="visible"><path d="M 0 0m 6.43102324 -0.2578125q -1.706817806 0 -2.930834472 0.768663704q -1.224016666 0.768663704 -1.879889697 2.132923812q -0.65587303 1.364260107 -0.65587303 3.149857014q 0 1.795144498 0.661241829 3.173728287q 0.661241829 1.378583789 1.854224235 2.161570847q 1.192982405 0.782987714 2.768509358 0.782987714q 1.056304395 0 1.995051205 -0.367019057q 0.93874681 -0.367019057 1.660267234 -1.111209929q 0.72152108 -0.744190872 1.132115364 -1.867348731q 0.41059494 -1.123158514 0.41059494 -2.635436118v -0.671997786h -9.32421875v 1.604169726h 8.291774154l -0.849831998 -0.577693522q 0 1.172093034 -0.389700651 2.061907291q -0.389700651 0.889814258 -1.129716992 1.386941373q -0.740016341 0.497127116 -1.796334505 0.497127116q -1.051544368 0 -1.813047379 -0.503095508q -0.761503011 -0.503095508 -1.172093034 -1.357099414q -0.410590023 -0.854003906 -0.410590023 -1.912697494v -0.946520865q 0 -1.260424316 0.435658187 -2.177689046q 0.435658187 -0.91726473 1.241921842 -1.40961346q 0.806263655 -0.492348731 1.906740576 -0.492348731q 0.751948535 0 1.346348047 0.225583643q 0.594399512 0.225583643 1.006183803 0.655866146q 0.411784947 0.430282503 0.613501906 1.0330396l 1.850045443 -0.286482811q -0.250654101 -0.983498275 -0.921443522 -1.73067072q -0.670789421 -0.747172445 -1.668020964 -1.167307764q -0.997231543 -0.420135319 -2.232583106 -0.420135319Z "/></symbol><symbol id="gAC593C57408873B18C312AE93112021F" overflow="visible"><path d="M 0 0m 6.371316373 11.713790298v -1.61610651h -6.180341601v 1.61610651h 6.180341601Z m -4.280178189 2.962445378h 1.885855794v -11.723310351q 0 -0.738830924 0.303767741 -1.061698437q 0.303767741 -0.322867513 1.03782028 -0.322867513q 0.211259961 0 0.49592793 0.023873568q 0.284667969 0.023873568 0.520996094 0.047747135l 0.2208305 -1.604169726q -0.291233659 -0.059683919 -0.651099563 -0.089525878q -0.359865248 -0.029841959 -0.69287765 -0.029841959q -1.514653027 0 -2.317937076 0.740622818q -0.803284049 0.740622818 -0.803284049 2.126374185v 11.892796159Z "/></symbol><symbol id="gBC2B4D13A9844602FF58B2551BEFDCD3" overflow="visible"><path d="M 0 0m 1.544504166 0v 11.713790298h 1.885855794v -11.713790298h -1.885855794Z m 0.948896289 13.789407253q -0.533530176 0 -0.916669726 0.37176466q -0.383139551 0.37176466 -0.383139551 0.892234921q 0 0.527561784 0.383139551 0.895780683q 0.383139551 0.368218899 0.914445102 0.368218899q 0.541723192 0 0.924862742 -0.368218899q 0.383139551 -0.368218899 0.383139551 -0.898095131q 0 -0.519278288 -0.383442461 -0.89048171q -0.383442789 -0.371203423 -0.922335207 -0.371203423Z "/></symbol><symbol id="g90DDA3808CA064F2C0CAC8C99AE9C14" overflow="visible"><path d="M 0 0m 3.43035996 16.005859375v -16.005859375h -1.885855794v 16.005859375h 1.885855794Z "/></symbol><symbol id="gF22008891B25FB4F255A3A755F428AD" overflow="visible"><path d="M 0 0m 4.949773014 -0.231558919q -1.133898079 0 -2.046389014 0.410592318q -0.912490934 0.410592318 -1.448408008 1.211484879q -0.535917073 0.800892562 -0.535917073 1.958664209q 0 1.007381022 0.396268636 1.637590885q 0.396268636 0.630209863 1.05930236 0.991267741q 0.663033724 0.361057878 1.483021468 0.543675065q 0.819987744 0.182617188 1.662652165 0.290039063q 1.078992546 0.144422233 1.73188138 0.219617546q 0.652888834 0.075195313 0.95188278 0.253038704q 0.298993945 0.177843392 0.298993945 0.613499284v 0.083548307q 0 0.694667578 -0.286457896 1.196568489q -0.286457241 0.501900911 -0.847438216 0.778810561q -0.56098032 0.276910305 -1.379775763 0.276910305q -0.825958431 0 -1.43587622 -0.266168118q -0.60991779 -0.266167462 -0.981717855 -0.690481901q -0.371800065 -0.424313784 -0.498326302 -0.910092235l -1.858398438 0.340198338q 0.28050983 1.071834147 0.978761196 1.775438249q 0.698251367 0.703604102 1.676980436 1.056892514q 0.978729069 0.353288412 2.088735223 0.353288412q 0.773419142 0 1.555806935 -0.199918509q 0.782387793 -0.199918509 1.429910123 -0.658248782q 0.64752233 -0.458329618 1.040813982 -1.232370973q 0.393290997 -0.77404201 0.393290997 -1.928257406v -7.874028027h -1.858403027v 1.623264909h -0.090715885q -0.204101563 -0.414171517 -0.631404459 -0.845650911q -0.427302897 -0.431479394 -1.125547051 -0.720326155q -0.69824481 -0.288846761 -1.723526418 -0.288846761Z m 0.299591243 1.674591243q 1.093313932 0 1.815429688 0.411784619q 0.722115755 0.411784619 1.080191731 1.071236849q 0.358075976 0.65945223 0.358075976 1.394694775v 1.555241764q -0.113390267 -0.120553255 -0.460726023 -0.221411407q -0.347336411 -0.100858808 -0.814626157 -0.18440941q -0.467289746 -0.083550602 -0.94531709 -0.149793327q -0.478027344 -0.066242725 -0.848026335 -0.112790674q -0.679147005 -0.0859375 -1.276533008 -0.295410156q -0.597386003 -0.209472656 -0.962620378 -0.602757096q -0.365234375 -0.39328444 -0.365234375 -1.061689258q 0 -0.580082715 0.30555734 -0.982319742q 0.30555734 -0.402237028 0.849829704 -0.612306982q 0.544272363 -0.210069954 1.263998926 -0.210069954Z "/></symbol><symbol id="g5611B29AE385F6CAC16B5C3E07D92BF3" overflow="visible"><path d="M 0 0m 3.43035996 6.949028254v -6.949028254h -1.885855794v 11.713790298h 1.824981868l 0.005968392 -2.839525878h -0.378351986q 0.552625358 1.607753515 1.558214486 2.313156068q 1.005589128 0.705403209 2.360299349 0.705403209q 1.185224414 0 2.112631738 -0.499511719q 0.927407324 -0.499511719 1.461530209 -1.50151968q 0.534122884 -1.002007306 0.534122884 -2.522624135v -7.369168162h -1.885855794v 7.222356737q 0 1.423932552 -0.715550065 2.191404283q -0.715550065 0.767471075 -1.981933594 0.767471075q -0.845053613 0 -1.527779818 -0.35688138q -0.682726204 -0.35688138 -1.08257404 -1.074221373q -0.399847835 -0.717339337 -0.399847835 -1.801101089Z "/></symbol><symbol id="gBBD3E27619A70A112D0B41B5C569D8F" overflow="visible"><path d="M 0 0m 5.973873794 -0.238717318q -1.483616471 0 -2.616322249 0.755534619q -1.132705778 0.755534619 -1.762915641 2.120989323q -0.630209863 1.365454704 -0.630209863 3.201183349q 0 1.834534049 0.633194059 3.197004557q 0.633194059 1.362470508 1.765899837 2.109649181q 1.132705778 0.747179985 2.616322249 0.747179985q 0.979946613 0 1.660285592 -0.30795145q 0.680339634 -0.30795145 1.129713058 -0.765690982q 0.449372768 -0.457739532 0.719112873 -0.91844523h 0.093105078v 6.105123341h 1.885855794v -16.005859375h -1.83095026v 1.796339095h -0.128915429q -0.288835287 -0.476221681 -0.748950243 -0.944703728q -0.460115612 -0.468482047 -1.138665318 -0.779417366q -0.678549707 -0.310935318 -1.646559536 -0.310935318Z m 0.285265267 1.691301823q 1.076607943 0 1.838108659 0.553224951q 0.761500716 0.553224951 1.162540853 1.54508999q 0.401040137 0.991865039 0.401040137 2.300027311q 0 1.312936068 -0.398056269 2.289879799q -0.398055613 0.976944387 -1.159556329 1.52121675q -0.761500716 0.544272363 -1.844077051 0.544272363q -1.067064941 0 -1.82438916 -0.543082356q -0.757324219 -0.543082356 -1.157169759 -1.52122134q -0.399845541 -0.978138328 -0.399845541 -2.291065216q 0 -1.314121485 0.402829736 -2.304196924q 0.402829736 -0.990075439 1.163138151 -1.542110384q 0.760308415 -0.552034944 1.815436572 -0.552034944Z "/></symbol><symbol id="g9C10B766C98DC49AC11DAC6AF037428C" overflow="visible"><path d="M 0 0m 5.569249868 -0.2578125q -1.225803971 0 -2.199164242 0.376571566q -0.97336027 0.376571566 -1.59163335 1.130906999q -0.618273079 0.754335433 -0.771057487 1.87628755l 1.822592676 0.244704068q 0.186205566 -0.997828841 0.88385275 -1.493159473q 0.697647184 -0.495330632 1.824377686 -0.495330632q 1.223419368 0 1.941358626 0.518014193q 0.717939258 0.518014193 0.717939258 1.263998926q 0 0.632594466 -0.451766551 1.034234196q -0.451767206 0.40163973 -1.286083221 0.591419905l -1.921666145 0.453561068q -1.608943522 0.381944954 -2.41102609 1.190593541q -0.802082568 0.808647931 -0.802082568 2.061904669q 0 1.002607226 0.553822249 1.773062825q 0.553822249 0.770455599 1.524800211 1.206708789q 0.970977962 0.43625319 2.220655501 0.43625319q 1.211482584 0 2.109645247 -0.404022694q 0.898162663 -0.404021382 1.445416927 -1.127917886q 0.547254264 -0.723895848 0.710785449 -1.696647346l -1.765297949 -0.25067246q -0.142046809 0.759102345 -0.75255698 1.314112306q -0.610510826 0.555009961 -1.742024302 0.555009961q -1.059897363 0 -1.733675569 -0.498914421q -0.673778206 -0.498914421 -0.673778206 -1.241319954q 0 -0.656468034 0.478624642 -1.054526269q 0.478624642 -0.398058236 1.426335514 -0.62125957l 1.820203483 -0.4296875q 1.6328125 -0.38671875 2.407444596 -1.178658724q 0.774632096 -0.791939974 0.774632096 -2.022517741q 0 -1.052734375 -0.584256589 -1.843482047q -0.584257245 -0.790747672 -1.614914536 -1.229987353q -1.030657291 -0.439239681 -2.361503124 -0.439239681Z "/></symbol><symbol id="g79494D17143D3E89247AA9FEFF891BFA" overflow="visible"><path d="M 0 0m 6.341497362 -0.2578125q -1.604169726 0 -2.815055013 0.766276807q -1.210885286 0.766276807 -1.886450797 2.134118408q -0.675565511 1.367841601 -0.675565511 3.1629861q 0 1.81782347 0.675565511 3.19342339q 0.675565511 1.375599265 1.886450797 2.144262314q 1.210885286 0.76866436 2.815055013 0.76866436q 0.913081348 0 1.7080006 -0.256615281q 0.794919908 -0.256615281 1.429306269 -0.728669643q 0.634386361 -0.472055018 1.06765765 -1.13508153q 0.433271289 -0.663027167 0.623055398 -1.480623424l -1.853623986 -0.292451203q -0.114584863 0.481009245 -0.368818164 0.882049382q -0.254233301 0.401040137 -0.630807161 0.695255697q -0.376573861 0.29421556 -0.870714486 0.4571383q -0.494140625 0.162922084 -1.10405612 0.162922084q -1.141065657 0 -1.912116259 -0.585453808q -0.771050602 -0.585453808 -1.161348552 -1.582092643q -0.390297949 -0.996638834 -0.390297949 -2.242727995q 0 -1.229378581 0.390297949 -2.218259424q 0.390297949 -0.988880843 1.158961654 -1.568963557q 0.768663704 -0.580082715 1.914503157 -0.580082715q 0.615883887 0 1.111219108 0.161132813q 0.495335221 0.161132813 0.868329883 0.461316764q 0.372994661 0.300183952 0.627227962 0.71554777q 0.254233301 0.415363818 0.383139551 0.913083643l 1.861976981 -0.292451203q -0.183815718 -0.819985449 -0.62007153 -1.488980681q -0.436255157 -0.668995231 -1.076012611 -1.155373275q -0.639757454 -0.486378044 -1.440645099 -0.748364747q -0.8008883 -0.261986703 -1.715164244 -0.261986703Z "/></symbol><symbol id="g4A0EEB31420167D6BF991A2F3EE92A27" overflow="visible"><path d="M 0 0m 1.544504166 -4.490234375v 16.204024673h 1.83095026v -1.813054264h 0.128915429q 0.275708497 0.460705698 0.726871192 0.91844523q 0.451162696 0.457739532 1.138662696 0.765690982q 0.6875 0.30795145 1.662672818 0.30795145q 1.494358659 0 2.621693015 -0.747179985q 1.127335012 -0.747178674 1.760529399 -2.109649181q 0.633193731 -1.362470508 0.633193731 -3.197004557q 0 -1.835728645 -0.630209208 -3.201183349q -0.630210519 -1.365454704 -1.757544875 -2.120989323q -1.127335012 -0.755534619 -2.621693671 -0.755534619q -0.957267642 0 -1.636414647 0.310935318q -0.679147005 0.310935318 -1.131504297 0.779417366q -0.452357292 0.468482047 -0.747160971 0.944703728h -0.093105078v -6.28657347h -1.885855794Z m 5.20877552 5.94281888q 1.065870345 0 1.820807338 0.552034944q 0.754937649 0.552034944 1.157767057 1.542110384q 0.402830064 0.990075439 0.402830064 2.304196924q 0 1.312926888 -0.399845541 2.291065216q -0.399845541 0.978138983 -1.154782534 1.52122134q -0.754937649 0.543082356 -1.826776385 0.543082356q -1.082576334 0 -1.844077051 -0.544272363q -0.761500716 -0.544272363 -1.159556657 -1.52121675q -0.398055941 -0.976943731 -0.398055941 -2.289879799q 0 -1.308162272 0.401040137 -2.300027311q 0.401040137 -0.991865039 1.165525049 -1.54508999q 0.764484912 -0.553224951 1.835124463 -0.553224951Z "/></symbol><symbol id="g8D6A3BC34639B16B0AFDC9F7B9060B9F" overflow="visible"><path d="M 0 0m 6.358203351 -4.700308919q -1.308162272 0 -2.304199219 0.362247884q -0.996036947 0.362247884 -1.642955095 1.013930649q -0.646918148 0.651682764 -0.917871207 1.512229413l 1.702025652 0.561028838q 0.21484834 -0.46309489 0.608130485 -0.874879509q 0.393282145 -0.411784619 1.019315511 -0.666617513q 0.626033366 -0.254832894 1.535553873 -0.254832894q 1.458548307 0 2.351944387 0.732851058q 0.893395424 0.732851058 0.893395424 2.200951546v 2.100727081h -0.106236458q -0.299577475 -0.482190073 -0.748950243 -0.93575114q -0.449373424 -0.453561068 -1.125536561 -0.74659121q -0.676162481 -0.293030143 -1.654914498 -0.293030143q -1.453774512 0 -2.58648029 0.71077168q -1.132705778 0.71077168 -1.774852425 2.028479248q -0.642146647 1.317707568 -0.642146647 3.135531038q 0 1.810660481 0.636178255 3.161194205q 0.636178255 1.350533724 1.771868229 2.097712398q 1.135689974 0.747179985 2.619306445 0.747179985q 0.973978221 0 1.657301724 -0.302580357q 0.683323503 -0.302580357 1.14284116 -0.772851348q 0.459518313 -0.470271647 0.744774401 -0.959620118h 0.106236458v 1.856018424h 1.836918652v -11.886873662q 0 -1.604160547 -0.695855618 -2.603778988q -0.695854962 -0.999618441 -1.861384273 -1.461532503q -1.165529966 -0.461914063 -2.564408123 -0.461914063Z m -0.087127507 6.397597492q 1.076607943 0 1.838108659 0.511446208q 0.761500716 0.511446208 1.162540853 1.458548307q 0.401040137 0.9471021 0.401040137 2.243327588q 0 1.283094108 -0.398056269 2.248101711q -0.398055613 0.965006948 -1.159556329 1.506295443q -0.761500716 0.541287839 -1.844077051 0.541287839q -1.067064941 0 -1.827373356 -0.540098488q -0.760308415 -0.540097833 -1.163138151 -1.503315508q -0.402829736 -0.963217676 -0.402829736 -2.252270997q 0 -1.302184701 0.405813932 -2.247497201q 0.405813932 -0.9453125 1.166122347 -1.455568701q 0.760308415 -0.510256201 1.821404964 -0.510256201Z "/></symbol><symbol id="g949857AA274341213E6AD57D234668AD" overflow="visible"><path d="M 0 0m 1.544504166 0v 11.713790298h 1.811855078v -1.819013476h 0.090715885q 0.323460221 0.898764551 1.0986965 1.444826841q 0.775236279 0.546061635 1.844681233 0.546061635q 0.229165137 0 0.486384928 -0.015516639q 0.257219791 -0.015515327 0.400452018 -0.031030655v -1.891824841q -0.095485091 0.026258171 -0.422527134 0.071614146q -0.327041388 0.04535532 -0.718533933 0.04535532q -0.754351497 0 -1.372034162 -0.328833938q -0.617682666 -0.328833282 -0.975758642 -0.950090885q -0.358075976 -0.621256948 -0.358075976 -1.504496336v -7.28084147h -1.885855794Z "/></symbol><symbol id="g2E5D8BDB1B26996395A71EB7B84E1123" overflow="visible"><path d="M 0 0m 5.658757389 -0.179033399q -1.180450618 0 -2.113229036 0.499511719q -0.932778418 0.499511719 -1.466901302 1.506890446q -0.534122884 1.007378727 -0.534122884 2.517253369v 7.369168162h 1.885855794v -7.222356737q 0 -1.423932552 0.720921159 -2.191403955q 0.720921159 -0.767471403 1.982530892 -0.767471403q 0.845053613 0 1.524795949 0.35688138q 0.679741681 0.35688138 1.079589844 1.079592139q 0.399847507 0.722710758 0.399847507 1.795730323v 6.949028254h 1.89182353v -11.713790298h -1.830949605v 2.839525878h 0.372383595q -0.55859375 -1.614916503 -1.570151269 -2.31673789q -1.011557519 -0.701821387 -2.342394173 -0.701821387Z "/></symbol><symbol id="gB87F9A3F70EE3193E91AE55358B48A9F" overflow="visible"><path d="M 0 0m 1.067265144 0v 0.958220631l 3.460370913 3.743394247q 0.580937159 0.628068933 0.965493703 1.10264093q 0.38455697 0.474571997 0.580064783 0.904165673q 0.195507813 0.42959325 0.195507813 0.912194777q 0 0.54625774 -0.258349609 0.94541924q -0.258349609 0.3991615 -0.698823914 0.612765479q -0.440474305 0.213603127 -1.000813234 0.213603127q -0.595483729 0 -1.032932204 -0.241824317q -0.437448475 -0.241824317 -0.6753162 -0.679970437q -0.237867725 -0.43814612 -0.237867725 -1.027230006h -1.269171947q 0 0.923657984 0.425869562 1.623529005q 0.425869562 0.699871022 1.159605585 1.088442969q 0.733736023 0.388571095 1.664026967 0.388571095q 0.929476526 0 1.645698535 -0.387757105q 0.716221583 -0.387757105 1.124983913 -1.044977564q 0.40876233 -0.657220459 0.40876233 -1.476025343q 0 -0.567320925 -0.203188306 -1.102406961q -0.20318788 -0.535086036 -0.712730372 -1.210984814q -0.509542066 -0.675898778 -1.428662157 -1.648784029l -2.285228118 -2.425110951v -0.08262561h 4.802507976v -1.165250036h -6.629808292Z "/></symbol><symbol id="g50FCAE6E9159DEDA0147C8DB9F88BEF1" overflow="visible"><path d="M 0 0m 4.827182126 10.892578125l -3.3515625 -12.456640625h -1.158151269l 3.3515625 12.456640625h 1.158151269Z "/></symbol></defs></svg>